<mxfile host="app.diagrams.net" modified="2021-06-17T10:11:08.721Z" agent="5.0 (X11; Linux x86_64) AppleWebKit/537.36 (KHTML, like Gecko) Chrome/90.0.4430.212 Safari/537.36" etag="4opoRK1B6b9wo-HQsJMP" version="14.7.7" type="github">
  <diagram id="C5RBs43oDa-KdzZeNtuy" name="Page-1">
    <mxGraphModel dx="1956" dy="691" grid="1" gridSize="10" guides="1" tooltips="1" connect="1" arrows="1" fold="1" page="1" pageScale="1" pageWidth="827" pageHeight="1169" math="0" shadow="0">
      <root>
        <mxCell id="WIyWlLk6GJQsqaUBKTNV-0" />
        <mxCell id="WIyWlLk6GJQsqaUBKTNV-1" parent="WIyWlLk6GJQsqaUBKTNV-0" />
        <mxCell id="zkfFHV4jXpPFQw0GAbJ--0" value="rvaPipeline" style="swimlane;fontStyle=2;align=center;verticalAlign=top;childLayout=stackLayout;horizontal=1;startSize=26;horizontalStack=0;resizeParent=1;resizeLast=0;collapsible=1;marginBottom=0;rounded=0;shadow=0;strokeWidth=1;" parent="WIyWlLk6GJQsqaUBKTNV-1" vertex="1">
          <mxGeometry x="220" y="10" width="160" height="170" as="geometry">
            <mxRectangle x="230" y="140" width="160" height="26" as="alternateBounds" />
          </mxGeometry>
        </mxCell>
        <mxCell id="zkfFHV4jXpPFQw0GAbJ--1" value="Name" style="text;align=left;verticalAlign=top;spacingLeft=4;spacingRight=4;overflow=hidden;rotatable=0;points=[[0,0.5],[1,0.5]];portConstraint=eastwest;" parent="zkfFHV4jXpPFQw0GAbJ--0" vertex="1">
          <mxGeometry y="26" width="160" height="26" as="geometry" />
        </mxCell>
        <mxCell id="zkfFHV4jXpPFQw0GAbJ--2" value="Phone Number" style="text;align=left;verticalAlign=top;spacingLeft=4;spacingRight=4;overflow=hidden;rotatable=0;points=[[0,0.5],[1,0.5]];portConstraint=eastwest;rounded=0;shadow=0;html=0;" parent="zkfFHV4jXpPFQw0GAbJ--0" vertex="1">
          <mxGeometry y="52" width="160" height="26" as="geometry" />
        </mxCell>
        <mxCell id="zkfFHV4jXpPFQw0GAbJ--3" value="Email Address" style="text;align=left;verticalAlign=top;spacingLeft=4;spacingRight=4;overflow=hidden;rotatable=0;points=[[0,0.5],[1,0.5]];portConstraint=eastwest;rounded=0;shadow=0;html=0;" parent="zkfFHV4jXpPFQw0GAbJ--0" vertex="1">
          <mxGeometry y="78" width="160" height="26" as="geometry" />
        </mxCell>
        <mxCell id="zkfFHV4jXpPFQw0GAbJ--4" value="" style="line;html=1;strokeWidth=1;align=left;verticalAlign=middle;spacingTop=-1;spacingLeft=3;spacingRight=3;rotatable=0;labelPosition=right;points=[];portConstraint=eastwest;" parent="zkfFHV4jXpPFQw0GAbJ--0" vertex="1">
          <mxGeometry y="104" width="160" height="8" as="geometry" />
        </mxCell>
        <mxCell id="zkfFHV4jXpPFQw0GAbJ--5" value="virtual rvaStatus SetPipelineParams" style="text;align=left;verticalAlign=top;spacingLeft=4;spacingRight=4;overflow=hidden;rotatable=0;points=[[0,0.5],[1,0.5]];portConstraint=eastwest;" parent="zkfFHV4jXpPFQw0GAbJ--0" vertex="1">
          <mxGeometry y="112" width="160" height="26" as="geometry" />
        </mxCell>
        <mxCell id="EIuWIeSCN8ZFaZUn1zgs-3" value="virtual rvaStatus LinkElements()" style="text;align=left;verticalAlign=top;spacingLeft=4;spacingRight=4;overflow=hidden;rotatable=0;points=[[0,0.5],[1,0.5]];portConstraint=eastwest;" parent="zkfFHV4jXpPFQw0GAbJ--0" vertex="1">
          <mxGeometry y="138" width="160" height="26" as="geometry" />
        </mxCell>
        <mxCell id="zkfFHV4jXpPFQw0GAbJ--6" value="MyPipeline" style="swimlane;fontStyle=0;align=center;verticalAlign=top;childLayout=stackLayout;horizontal=1;startSize=26;horizontalStack=0;resizeParent=1;resizeLast=0;collapsible=1;marginBottom=0;rounded=0;shadow=0;strokeWidth=1;" parent="WIyWlLk6GJQsqaUBKTNV-1" vertex="1">
          <mxGeometry x="110" y="260" width="160" height="138" as="geometry">
            <mxRectangle x="130" y="380" width="160" height="26" as="alternateBounds" />
          </mxGeometry>
        </mxCell>
        <mxCell id="zkfFHV4jXpPFQw0GAbJ--7" value="GstElement" style="text;align=left;verticalAlign=top;spacingLeft=4;spacingRight=4;overflow=hidden;rotatable=0;points=[[0,0.5],[1,0.5]];portConstraint=eastwest;" parent="zkfFHV4jXpPFQw0GAbJ--6" vertex="1">
          <mxGeometry y="26" width="160" height="26" as="geometry" />
        </mxCell>
        <mxCell id="zkfFHV4jXpPFQw0GAbJ--8" value="ReportData" style="text;align=left;verticalAlign=top;spacingLeft=4;spacingRight=4;overflow=hidden;rotatable=0;points=[[0,0.5],[1,0.5]];portConstraint=eastwest;rounded=0;shadow=0;html=0;" parent="zkfFHV4jXpPFQw0GAbJ--6" vertex="1">
          <mxGeometry y="52" width="160" height="26" as="geometry" />
        </mxCell>
        <mxCell id="zkfFHV4jXpPFQw0GAbJ--9" value="" style="line;html=1;strokeWidth=1;align=left;verticalAlign=middle;spacingTop=-1;spacingLeft=3;spacingRight=3;rotatable=0;labelPosition=right;points=[];portConstraint=eastwest;" parent="zkfFHV4jXpPFQw0GAbJ--6" vertex="1">
          <mxGeometry y="78" width="160" height="8" as="geometry" />
        </mxCell>
        <mxCell id="zkfFHV4jXpPFQw0GAbJ--10" value="void reportImgToAlService" style="text;align=left;verticalAlign=top;spacingLeft=4;spacingRight=4;overflow=hidden;rotatable=0;points=[[0,0.5],[1,0.5]];portConstraint=eastwest;fontStyle=4;" parent="zkfFHV4jXpPFQw0GAbJ--6" vertex="1">
          <mxGeometry y="86" width="160" height="26" as="geometry" />
        </mxCell>
        <mxCell id="zkfFHV4jXpPFQw0GAbJ--11" value="Get Seminars Taken" style="text;align=left;verticalAlign=top;spacingLeft=4;spacingRight=4;overflow=hidden;rotatable=0;points=[[0,0.5],[1,0.5]];portConstraint=eastwest;" parent="zkfFHV4jXpPFQw0GAbJ--6" vertex="1">
          <mxGeometry y="112" width="160" height="26" as="geometry" />
        </mxCell>
        <mxCell id="zkfFHV4jXpPFQw0GAbJ--12" value="" style="endArrow=block;endSize=10;endFill=0;shadow=0;strokeWidth=1;rounded=0;edgeStyle=elbowEdgeStyle;elbow=vertical;" parent="WIyWlLk6GJQsqaUBKTNV-1" source="zkfFHV4jXpPFQw0GAbJ--6" target="zkfFHV4jXpPFQw0GAbJ--0" edge="1">
          <mxGeometry width="160" relative="1" as="geometry">
            <mxPoint x="190" y="103" as="sourcePoint" />
            <mxPoint x="190" y="103" as="targetPoint" />
          </mxGeometry>
        </mxCell>
        <mxCell id="zkfFHV4jXpPFQw0GAbJ--13" value="MyPipeline..." style="swimlane;fontStyle=0;align=center;verticalAlign=top;childLayout=stackLayout;horizontal=1;startSize=26;horizontalStack=0;resizeParent=1;resizeLast=0;collapsible=1;marginBottom=0;rounded=0;shadow=0;strokeWidth=1;" parent="WIyWlLk6GJQsqaUBKTNV-1" vertex="1">
          <mxGeometry x="350" y="260" width="160" height="70" as="geometry">
            <mxRectangle x="340" y="380" width="170" height="26" as="alternateBounds" />
          </mxGeometry>
        </mxCell>
        <mxCell id="zkfFHV4jXpPFQw0GAbJ--14" value="..." style="text;align=left;verticalAlign=top;spacingLeft=4;spacingRight=4;overflow=hidden;rotatable=0;points=[[0,0.5],[1,0.5]];portConstraint=eastwest;" parent="zkfFHV4jXpPFQw0GAbJ--13" vertex="1">
          <mxGeometry y="26" width="160" height="26" as="geometry" />
        </mxCell>
        <mxCell id="zkfFHV4jXpPFQw0GAbJ--15" value="" style="line;html=1;strokeWidth=1;align=left;verticalAlign=middle;spacingTop=-1;spacingLeft=3;spacingRight=3;rotatable=0;labelPosition=right;points=[];portConstraint=eastwest;" parent="zkfFHV4jXpPFQw0GAbJ--13" vertex="1">
          <mxGeometry y="52" width="160" height="8" as="geometry" />
        </mxCell>
        <mxCell id="zkfFHV4jXpPFQw0GAbJ--16" value="" style="endArrow=block;endSize=10;endFill=0;shadow=0;strokeWidth=1;rounded=0;edgeStyle=elbowEdgeStyle;elbow=vertical;" parent="WIyWlLk6GJQsqaUBKTNV-1" source="zkfFHV4jXpPFQw0GAbJ--13" target="zkfFHV4jXpPFQw0GAbJ--0" edge="1">
          <mxGeometry width="160" relative="1" as="geometry">
            <mxPoint x="200" y="273" as="sourcePoint" />
            <mxPoint x="300" y="171" as="targetPoint" />
          </mxGeometry>
        </mxCell>
        <mxCell id="EIuWIeSCN8ZFaZUn1zgs-45" value="HdWork" style="swimlane;fontStyle=0;align=center;verticalAlign=top;childLayout=stackLayout;horizontal=1;startSize=26;horizontalStack=0;resizeParent=1;resizeLast=0;collapsible=1;marginBottom=0;rounded=0;shadow=0;strokeWidth=1;" parent="WIyWlLk6GJQsqaUBKTNV-1" vertex="1">
          <mxGeometry x="-290" y="690" width="300" height="339" as="geometry">
            <mxRectangle x="508" y="120" width="160" height="26" as="alternateBounds" />
          </mxGeometry>
        </mxCell>
        <mxCell id="EIuWIeSCN8ZFaZUn1zgs-46" value="std::unique_ptr&lt;vas::ot::HeadDetector&gt; hd" style="text;align=left;verticalAlign=top;spacingLeft=4;spacingRight=4;overflow=hidden;rotatable=0;points=[[0,0.5],[1,0.5]];portConstraint=eastwest;" parent="EIuWIeSCN8ZFaZUn1zgs-45" vertex="1">
          <mxGeometry y="26" width="300" height="26" as="geometry" />
        </mxCell>
        <mxCell id="EIuWIeSCN8ZFaZUn1zgs-51" value="" style="line;html=1;strokeWidth=1;align=left;verticalAlign=middle;spacingTop=-1;spacingLeft=3;spacingRight=3;rotatable=0;labelPosition=right;points=[];portConstraint=eastwest;" parent="EIuWIeSCN8ZFaZUn1zgs-45" vertex="1">
          <mxGeometry y="52" width="300" height="8" as="geometry" />
        </mxCell>
        <mxCell id="EIuWIeSCN8ZFaZUn1zgs-52" value="HdWork()" style="text;align=left;verticalAlign=top;spacingLeft=4;spacingRight=4;overflow=hidden;rotatable=0;points=[[0,0.5],[1,0.5]];portConstraint=eastwest;" parent="EIuWIeSCN8ZFaZUn1zgs-45" vertex="1">
          <mxGeometry y="60" width="300" height="26" as="geometry" />
        </mxCell>
        <mxCell id="EIuWIeSCN8ZFaZUn1zgs-55" value="~HdWork()" style="text;align=left;verticalAlign=top;spacingLeft=4;spacingRight=4;overflow=hidden;rotatable=0;points=[[0,0.5],[1,0.5]];portConstraint=eastwest;" parent="EIuWIeSCN8ZFaZUn1zgs-45" vertex="1">
          <mxGeometry y="86" width="300" height="26" as="geometry" />
        </mxCell>
        <mxCell id="aHSUzF2l3U4_WT08x_av-0" value="Detection()" style="text;align=left;verticalAlign=top;spacingLeft=4;spacingRight=4;overflow=hidden;rotatable=0;points=[[0,0.5],[1,0.5]];portConstraint=eastwest;" parent="EIuWIeSCN8ZFaZUn1zgs-45" vertex="1">
          <mxGeometry y="112" width="300" height="26" as="geometry" />
        </mxCell>
        <mxCell id="aHSUzF2l3U4_WT08x_av-1" value="version()" style="text;align=left;verticalAlign=top;spacingLeft=4;spacingRight=4;overflow=hidden;rotatable=0;points=[[0,0.5],[1,0.5]];portConstraint=eastwest;" parent="EIuWIeSCN8ZFaZUn1zgs-45" vertex="1">
          <mxGeometry y="138" width="300" height="26" as="geometry" />
        </mxCell>
        <mxCell id="aHSUzF2l3U4_WT08x_av-2" value="FdWork" style="swimlane;fontStyle=0;align=center;verticalAlign=top;childLayout=stackLayout;horizontal=1;startSize=26;horizontalStack=0;resizeParent=1;resizeLast=0;collapsible=1;marginBottom=0;rounded=0;shadow=0;strokeWidth=1;" parent="WIyWlLk6GJQsqaUBKTNV-1" vertex="1">
          <mxGeometry x="420" y="732" width="300" height="398" as="geometry">
            <mxRectangle x="508" y="120" width="160" height="26" as="alternateBounds" />
          </mxGeometry>
        </mxCell>
        <mxCell id="aHSUzF2l3U4_WT08x_av-3" value="std::unique_ptr&lt;vas::fd::FaceDetector&gt; fd" style="text;align=left;verticalAlign=top;spacingLeft=4;spacingRight=4;overflow=hidden;rotatable=0;points=[[0,0.5],[1,0.5]];portConstraint=eastwest;" parent="aHSUzF2l3U4_WT08x_av-2" vertex="1">
          <mxGeometry y="26" width="300" height="26" as="geometry" />
        </mxCell>
        <mxCell id="wuCH2IQg_Po8L5Twyxa0-1" value="std::unique_ptr&lt;vas::fr::FaceRecognizer&gt; fr" style="text;align=left;verticalAlign=top;spacingLeft=4;spacingRight=4;overflow=hidden;rotatable=0;points=[[0,0.5],[1,0.5]];portConstraint=eastwest;" parent="aHSUzF2l3U4_WT08x_av-2" vertex="1">
          <mxGeometry y="52" width="300" height="26" as="geometry" />
        </mxCell>
        <mxCell id="wuCH2IQg_Po8L5Twyxa0-94" value="similarity_score" style="text;align=left;verticalAlign=top;spacingLeft=4;spacingRight=4;overflow=hidden;rotatable=0;points=[[0,0.5],[1,0.5]];portConstraint=eastwest;" parent="aHSUzF2l3U4_WT08x_av-2" vertex="1">
          <mxGeometry y="78" width="300" height="26" as="geometry" />
        </mxCell>
        <mxCell id="wuCH2IQg_Po8L5Twyxa0-95" value="recognition_quality" style="text;align=left;verticalAlign=top;spacingLeft=4;spacingRight=4;overflow=hidden;rotatable=0;points=[[0,0.5],[1,0.5]];portConstraint=eastwest;" parent="aHSUzF2l3U4_WT08x_av-2" vertex="1">
          <mxGeometry y="104" width="300" height="26" as="geometry" />
        </mxCell>
        <mxCell id="aHSUzF2l3U4_WT08x_av-10" value="" style="line;html=1;strokeWidth=1;align=left;verticalAlign=middle;spacingTop=-1;spacingLeft=3;spacingRight=3;rotatable=0;labelPosition=right;points=[];portConstraint=eastwest;" parent="aHSUzF2l3U4_WT08x_av-2" vertex="1">
          <mxGeometry y="130" width="300" height="8" as="geometry" />
        </mxCell>
        <mxCell id="aHSUzF2l3U4_WT08x_av-11" value="FdWork()" style="text;align=left;verticalAlign=top;spacingLeft=4;spacingRight=4;overflow=hidden;rotatable=0;points=[[0,0.5],[1,0.5]];portConstraint=eastwest;" parent="aHSUzF2l3U4_WT08x_av-2" vertex="1">
          <mxGeometry y="138" width="300" height="26" as="geometry" />
        </mxCell>
        <mxCell id="aHSUzF2l3U4_WT08x_av-12" value="~FdWork()" style="text;align=left;verticalAlign=top;spacingLeft=4;spacingRight=4;overflow=hidden;rotatable=0;points=[[0,0.5],[1,0.5]];portConstraint=eastwest;" parent="aHSUzF2l3U4_WT08x_av-2" vertex="1">
          <mxGeometry y="164" width="300" height="26" as="geometry" />
        </mxCell>
        <mxCell id="aHSUzF2l3U4_WT08x_av-13" value="Register()/unRegister()" style="text;align=left;verticalAlign=top;spacingLeft=4;spacingRight=4;overflow=hidden;rotatable=0;points=[[0,0.5],[1,0.5]];portConstraint=eastwest;" parent="aHSUzF2l3U4_WT08x_av-2" vertex="1">
          <mxGeometry y="190" width="300" height="26" as="geometry" />
        </mxCell>
        <mxCell id="aHSUzF2l3U4_WT08x_av-14" value="Detection()" style="text;align=left;verticalAlign=top;spacingLeft=4;spacingRight=4;overflow=hidden;rotatable=0;points=[[0,0.5],[1,0.5]];portConstraint=eastwest;" parent="aHSUzF2l3U4_WT08x_av-2" vertex="1">
          <mxGeometry y="216" width="300" height="26" as="geometry" />
        </mxCell>
        <mxCell id="wuCH2IQg_Po8L5Twyxa0-0" value="doFaceRecoginze" style="text;align=left;verticalAlign=top;spacingLeft=4;spacingRight=4;overflow=hidden;rotatable=0;points=[[0,0.5],[1,0.5]];portConstraint=eastwest;" parent="aHSUzF2l3U4_WT08x_av-2" vertex="1">
          <mxGeometry y="242" width="300" height="26" as="geometry" />
        </mxCell>
        <mxCell id="aHSUzF2l3U4_WT08x_av-16" value="version()" style="text;align=left;verticalAlign=top;spacingLeft=4;spacingRight=4;overflow=hidden;rotatable=0;points=[[0,0.5],[1,0.5]];portConstraint=eastwest;" parent="aHSUzF2l3U4_WT08x_av-2" vertex="1">
          <mxGeometry y="268" width="300" height="26" as="geometry" />
        </mxCell>
        <mxCell id="wuCH2IQg_Po8L5Twyxa0-3" value="PacWork" style="swimlane;fontStyle=0;align=center;verticalAlign=top;childLayout=stackLayout;horizontal=1;startSize=26;horizontalStack=0;resizeParent=1;resizeLast=0;collapsible=1;marginBottom=0;rounded=0;shadow=0;strokeWidth=1;" parent="WIyWlLk6GJQsqaUBKTNV-1" vertex="1">
          <mxGeometry x="-250" y="1220" width="300" height="339" as="geometry">
            <mxRectangle x="508" y="120" width="160" height="26" as="alternateBounds" />
          </mxGeometry>
        </mxCell>
        <mxCell id="wuCH2IQg_Po8L5Twyxa0-4" value="std::unique_ptr&lt;vas::ot::HeadDetector&gt; hd" style="text;align=left;verticalAlign=top;spacingLeft=4;spacingRight=4;overflow=hidden;rotatable=0;points=[[0,0.5],[1,0.5]];portConstraint=eastwest;" parent="wuCH2IQg_Po8L5Twyxa0-3" vertex="1">
          <mxGeometry y="26" width="300" height="26" as="geometry" />
        </mxCell>
        <mxCell id="wuCH2IQg_Po8L5Twyxa0-5" value="backendType" style="text;align=left;verticalAlign=top;spacingLeft=4;spacingRight=4;overflow=hidden;rotatable=0;points=[[0,0.5],[1,0.5]];portConstraint=eastwest;rounded=0;shadow=0;html=0;" parent="wuCH2IQg_Po8L5Twyxa0-3" vertex="1">
          <mxGeometry y="52" width="300" height="26" as="geometry" />
        </mxCell>
        <mxCell id="wuCH2IQg_Po8L5Twyxa0-6" value="threshold" style="text;align=left;verticalAlign=top;spacingLeft=4;spacingRight=4;overflow=hidden;rotatable=0;points=[[0,0.5],[1,0.5]];portConstraint=eastwest;rounded=0;shadow=0;html=0;" parent="wuCH2IQg_Po8L5Twyxa0-3" vertex="1">
          <mxGeometry y="78" width="300" height="26" as="geometry" />
        </mxCell>
        <mxCell id="wuCH2IQg_Po8L5Twyxa0-7" value="modelPath" style="text;align=left;verticalAlign=top;spacingLeft=4;spacingRight=4;overflow=hidden;rotatable=0;points=[[0,0.5],[1,0.5]];portConstraint=eastwest;rounded=0;shadow=0;html=0;" parent="wuCH2IQg_Po8L5Twyxa0-3" vertex="1">
          <mxGeometry y="104" width="300" height="26" as="geometry" />
        </mxCell>
        <mxCell id="wuCH2IQg_Po8L5Twyxa0-8" value="saveImg" style="text;align=left;verticalAlign=top;spacingLeft=4;spacingRight=4;overflow=hidden;rotatable=0;points=[[0,0.5],[1,0.5]];portConstraint=eastwest;rounded=0;shadow=0;html=0;" parent="wuCH2IQg_Po8L5Twyxa0-3" vertex="1">
          <mxGeometry y="130" width="300" height="26" as="geometry" />
        </mxCell>
        <mxCell id="wuCH2IQg_Po8L5Twyxa0-9" value="notifyUrl" style="text;align=left;verticalAlign=top;spacingLeft=4;spacingRight=4;overflow=hidden;rotatable=0;points=[[0,0.5],[1,0.5]];portConstraint=eastwest;rounded=0;shadow=0;html=0;" parent="wuCH2IQg_Po8L5Twyxa0-3" vertex="1">
          <mxGeometry y="156" width="300" height="26" as="geometry" />
        </mxCell>
        <mxCell id="wuCH2IQg_Po8L5Twyxa0-10" value="obs" style="text;align=left;verticalAlign=top;spacingLeft=4;spacingRight=4;overflow=hidden;rotatable=0;points=[[0,0.5],[1,0.5]];portConstraint=eastwest;rounded=0;shadow=0;html=0;" parent="wuCH2IQg_Po8L5Twyxa0-3" vertex="1">
          <mxGeometry y="182" width="300" height="26" as="geometry" />
        </mxCell>
        <mxCell id="wuCH2IQg_Po8L5Twyxa0-11" value="" style="line;html=1;strokeWidth=1;align=left;verticalAlign=middle;spacingTop=-1;spacingLeft=3;spacingRight=3;rotatable=0;labelPosition=right;points=[];portConstraint=eastwest;" parent="wuCH2IQg_Po8L5Twyxa0-3" vertex="1">
          <mxGeometry y="208" width="300" height="8" as="geometry" />
        </mxCell>
        <mxCell id="wuCH2IQg_Po8L5Twyxa0-12" value="HdWork()" style="text;align=left;verticalAlign=top;spacingLeft=4;spacingRight=4;overflow=hidden;rotatable=0;points=[[0,0.5],[1,0.5]];portConstraint=eastwest;" parent="wuCH2IQg_Po8L5Twyxa0-3" vertex="1">
          <mxGeometry y="216" width="300" height="26" as="geometry" />
        </mxCell>
        <mxCell id="wuCH2IQg_Po8L5Twyxa0-13" value="~HdWork()" style="text;align=left;verticalAlign=top;spacingLeft=4;spacingRight=4;overflow=hidden;rotatable=0;points=[[0,0.5],[1,0.5]];portConstraint=eastwest;" parent="wuCH2IQg_Po8L5Twyxa0-3" vertex="1">
          <mxGeometry y="242" width="300" height="26" as="geometry" />
        </mxCell>
        <mxCell id="wuCH2IQg_Po8L5Twyxa0-14" value="Detection()" style="text;align=left;verticalAlign=top;spacingLeft=4;spacingRight=4;overflow=hidden;rotatable=0;points=[[0,0.5],[1,0.5]];portConstraint=eastwest;" parent="wuCH2IQg_Po8L5Twyxa0-3" vertex="1">
          <mxGeometry y="268" width="300" height="26" as="geometry" />
        </mxCell>
        <mxCell id="wuCH2IQg_Po8L5Twyxa0-15" value="version()" style="text;align=left;verticalAlign=top;spacingLeft=4;spacingRight=4;overflow=hidden;rotatable=0;points=[[0,0.5],[1,0.5]];portConstraint=eastwest;" parent="wuCH2IQg_Po8L5Twyxa0-3" vertex="1">
          <mxGeometry y="294" width="300" height="26" as="geometry" />
        </mxCell>
        <mxCell id="wuCH2IQg_Po8L5Twyxa0-17" value="OtWork" style="swimlane;fontStyle=0;align=center;verticalAlign=top;childLayout=stackLayout;horizontal=1;startSize=26;horizontalStack=0;resizeParent=1;resizeLast=0;collapsible=1;marginBottom=0;rounded=0;shadow=0;strokeWidth=1;" parent="WIyWlLk6GJQsqaUBKTNV-1" vertex="1">
          <mxGeometry x="120" y="1140" width="300" height="260" as="geometry">
            <mxRectangle x="508" y="120" width="160" height="26" as="alternateBounds" />
          </mxGeometry>
        </mxCell>
        <mxCell id="wuCH2IQg_Po8L5Twyxa0-18" value="std::unique_ptr&lt;vas::ot::ObjectTracker&gt; ot" style="text;align=left;verticalAlign=top;spacingLeft=4;spacingRight=4;overflow=hidden;rotatable=0;points=[[0,0.5],[1,0.5]];portConstraint=eastwest;" parent="wuCH2IQg_Po8L5Twyxa0-17" vertex="1">
          <mxGeometry y="26" width="300" height="26" as="geometry" />
        </mxCell>
        <mxCell id="wuCH2IQg_Po8L5Twyxa0-19" value="backendType" style="text;align=left;verticalAlign=top;spacingLeft=4;spacingRight=4;overflow=hidden;rotatable=0;points=[[0,0.5],[1,0.5]];portConstraint=eastwest;rounded=0;shadow=0;html=0;" parent="wuCH2IQg_Po8L5Twyxa0-17" vertex="1">
          <mxGeometry y="52" width="300" height="26" as="geometry" />
        </mxCell>
        <mxCell id="wuCH2IQg_Po8L5Twyxa0-21" value="max_num_objects" style="text;align=left;verticalAlign=top;spacingLeft=4;spacingRight=4;overflow=hidden;rotatable=0;points=[[0,0.5],[1,0.5]];portConstraint=eastwest;rounded=0;shadow=0;html=0;" parent="wuCH2IQg_Po8L5Twyxa0-17" vertex="1">
          <mxGeometry y="78" width="300" height="26" as="geometry" />
        </mxCell>
        <mxCell id="wuCH2IQg_Po8L5Twyxa0-22" value="input_image_format" style="text;align=left;verticalAlign=top;spacingLeft=4;spacingRight=4;overflow=hidden;rotatable=0;points=[[0,0.5],[1,0.5]];portConstraint=eastwest;rounded=0;shadow=0;html=0;" parent="wuCH2IQg_Po8L5Twyxa0-17" vertex="1">
          <mxGeometry y="104" width="300" height="26" as="geometry" />
        </mxCell>
        <mxCell id="wuCH2IQg_Po8L5Twyxa0-25" value="" style="line;html=1;strokeWidth=1;align=left;verticalAlign=middle;spacingTop=-1;spacingLeft=3;spacingRight=3;rotatable=0;labelPosition=right;points=[];portConstraint=eastwest;" parent="wuCH2IQg_Po8L5Twyxa0-17" vertex="1">
          <mxGeometry y="130" width="300" height="8" as="geometry" />
        </mxCell>
        <mxCell id="wuCH2IQg_Po8L5Twyxa0-26" value="OtWork()" style="text;align=left;verticalAlign=top;spacingLeft=4;spacingRight=4;overflow=hidden;rotatable=0;points=[[0,0.5],[1,0.5]];portConstraint=eastwest;" parent="wuCH2IQg_Po8L5Twyxa0-17" vertex="1">
          <mxGeometry y="138" width="300" height="26" as="geometry" />
        </mxCell>
        <mxCell id="wuCH2IQg_Po8L5Twyxa0-27" value="~OtWork()" style="text;align=left;verticalAlign=top;spacingLeft=4;spacingRight=4;overflow=hidden;rotatable=0;points=[[0,0.5],[1,0.5]];portConstraint=eastwest;" parent="wuCH2IQg_Po8L5Twyxa0-17" vertex="1">
          <mxGeometry y="164" width="300" height="26" as="geometry" />
        </mxCell>
        <mxCell id="wuCH2IQg_Po8L5Twyxa0-28" value="Track()" style="text;align=left;verticalAlign=top;spacingLeft=4;spacingRight=4;overflow=hidden;rotatable=0;points=[[0,0.5],[1,0.5]];portConstraint=eastwest;" parent="wuCH2IQg_Po8L5Twyxa0-17" vertex="1">
          <mxGeometry y="190" width="300" height="26" as="geometry" />
        </mxCell>
        <mxCell id="wuCH2IQg_Po8L5Twyxa0-29" value="version()" style="text;align=left;verticalAlign=top;spacingLeft=4;spacingRight=4;overflow=hidden;rotatable=0;points=[[0,0.5],[1,0.5]];portConstraint=eastwest;" parent="wuCH2IQg_Po8L5Twyxa0-17" vertex="1">
          <mxGeometry y="216" width="300" height="26" as="geometry" />
        </mxCell>
        <mxCell id="wuCH2IQg_Po8L5Twyxa0-30" value="FacWork" style="swimlane;fontStyle=0;align=center;verticalAlign=top;childLayout=stackLayout;horizontal=1;startSize=26;horizontalStack=0;resizeParent=1;resizeLast=0;collapsible=1;marginBottom=0;rounded=0;shadow=0;strokeWidth=1;" parent="WIyWlLk6GJQsqaUBKTNV-1" vertex="1">
          <mxGeometry x="510" y="1210" width="300" height="339" as="geometry">
            <mxRectangle x="508" y="120" width="160" height="26" as="alternateBounds" />
          </mxGeometry>
        </mxCell>
        <mxCell id="wuCH2IQg_Po8L5Twyxa0-31" value="std::unique_ptr&lt;vas::ot::HeadDetector&gt; hd" style="text;align=left;verticalAlign=top;spacingLeft=4;spacingRight=4;overflow=hidden;rotatable=0;points=[[0,0.5],[1,0.5]];portConstraint=eastwest;" parent="wuCH2IQg_Po8L5Twyxa0-30" vertex="1">
          <mxGeometry y="26" width="300" height="26" as="geometry" />
        </mxCell>
        <mxCell id="wuCH2IQg_Po8L5Twyxa0-32" value="backendType" style="text;align=left;verticalAlign=top;spacingLeft=4;spacingRight=4;overflow=hidden;rotatable=0;points=[[0,0.5],[1,0.5]];portConstraint=eastwest;rounded=0;shadow=0;html=0;" parent="wuCH2IQg_Po8L5Twyxa0-30" vertex="1">
          <mxGeometry y="52" width="300" height="26" as="geometry" />
        </mxCell>
        <mxCell id="wuCH2IQg_Po8L5Twyxa0-33" value="threshold" style="text;align=left;verticalAlign=top;spacingLeft=4;spacingRight=4;overflow=hidden;rotatable=0;points=[[0,0.5],[1,0.5]];portConstraint=eastwest;rounded=0;shadow=0;html=0;" parent="wuCH2IQg_Po8L5Twyxa0-30" vertex="1">
          <mxGeometry y="78" width="300" height="26" as="geometry" />
        </mxCell>
        <mxCell id="wuCH2IQg_Po8L5Twyxa0-34" value="modelPath" style="text;align=left;verticalAlign=top;spacingLeft=4;spacingRight=4;overflow=hidden;rotatable=0;points=[[0,0.5],[1,0.5]];portConstraint=eastwest;rounded=0;shadow=0;html=0;" parent="wuCH2IQg_Po8L5Twyxa0-30" vertex="1">
          <mxGeometry y="104" width="300" height="26" as="geometry" />
        </mxCell>
        <mxCell id="wuCH2IQg_Po8L5Twyxa0-35" value="saveImg" style="text;align=left;verticalAlign=top;spacingLeft=4;spacingRight=4;overflow=hidden;rotatable=0;points=[[0,0.5],[1,0.5]];portConstraint=eastwest;rounded=0;shadow=0;html=0;" parent="wuCH2IQg_Po8L5Twyxa0-30" vertex="1">
          <mxGeometry y="130" width="300" height="26" as="geometry" />
        </mxCell>
        <mxCell id="wuCH2IQg_Po8L5Twyxa0-36" value="notifyUrl" style="text;align=left;verticalAlign=top;spacingLeft=4;spacingRight=4;overflow=hidden;rotatable=0;points=[[0,0.5],[1,0.5]];portConstraint=eastwest;rounded=0;shadow=0;html=0;" parent="wuCH2IQg_Po8L5Twyxa0-30" vertex="1">
          <mxGeometry y="156" width="300" height="26" as="geometry" />
        </mxCell>
        <mxCell id="wuCH2IQg_Po8L5Twyxa0-37" value="obs" style="text;align=left;verticalAlign=top;spacingLeft=4;spacingRight=4;overflow=hidden;rotatable=0;points=[[0,0.5],[1,0.5]];portConstraint=eastwest;rounded=0;shadow=0;html=0;" parent="wuCH2IQg_Po8L5Twyxa0-30" vertex="1">
          <mxGeometry y="182" width="300" height="26" as="geometry" />
        </mxCell>
        <mxCell id="wuCH2IQg_Po8L5Twyxa0-38" value="" style="line;html=1;strokeWidth=1;align=left;verticalAlign=middle;spacingTop=-1;spacingLeft=3;spacingRight=3;rotatable=0;labelPosition=right;points=[];portConstraint=eastwest;" parent="wuCH2IQg_Po8L5Twyxa0-30" vertex="1">
          <mxGeometry y="208" width="300" height="8" as="geometry" />
        </mxCell>
        <mxCell id="wuCH2IQg_Po8L5Twyxa0-39" value="HdWork()" style="text;align=left;verticalAlign=top;spacingLeft=4;spacingRight=4;overflow=hidden;rotatable=0;points=[[0,0.5],[1,0.5]];portConstraint=eastwest;" parent="wuCH2IQg_Po8L5Twyxa0-30" vertex="1">
          <mxGeometry y="216" width="300" height="26" as="geometry" />
        </mxCell>
        <mxCell id="wuCH2IQg_Po8L5Twyxa0-40" value="~HdWork()" style="text;align=left;verticalAlign=top;spacingLeft=4;spacingRight=4;overflow=hidden;rotatable=0;points=[[0,0.5],[1,0.5]];portConstraint=eastwest;" parent="wuCH2IQg_Po8L5Twyxa0-30" vertex="1">
          <mxGeometry y="242" width="300" height="26" as="geometry" />
        </mxCell>
        <mxCell id="wuCH2IQg_Po8L5Twyxa0-41" value="Detection()" style="text;align=left;verticalAlign=top;spacingLeft=4;spacingRight=4;overflow=hidden;rotatable=0;points=[[0,0.5],[1,0.5]];portConstraint=eastwest;" parent="wuCH2IQg_Po8L5Twyxa0-30" vertex="1">
          <mxGeometry y="268" width="300" height="26" as="geometry" />
        </mxCell>
        <mxCell id="wuCH2IQg_Po8L5Twyxa0-42" value="version()" style="text;align=left;verticalAlign=top;spacingLeft=4;spacingRight=4;overflow=hidden;rotatable=0;points=[[0,0.5],[1,0.5]];portConstraint=eastwest;" parent="wuCH2IQg_Po8L5Twyxa0-30" vertex="1">
          <mxGeometry y="294" width="300" height="26" as="geometry" />
        </mxCell>
        <mxCell id="wuCH2IQg_Po8L5Twyxa0-45" value="Work" style="swimlane;fontStyle=0;align=center;verticalAlign=top;childLayout=stackLayout;horizontal=1;startSize=26;horizontalStack=0;resizeParent=1;resizeLast=0;collapsible=1;marginBottom=0;rounded=0;shadow=0;strokeWidth=1;" parent="WIyWlLk6GJQsqaUBKTNV-1" vertex="1">
          <mxGeometry x="30" y="412" width="370" height="450" as="geometry">
            <mxRectangle x="508" y="120" width="160" height="26" as="alternateBounds" />
          </mxGeometry>
        </mxCell>
        <mxCell id="wuCH2IQg_Po8L5Twyxa0-47" value="backendType" style="text;align=left;verticalAlign=top;spacingLeft=4;spacingRight=4;overflow=hidden;rotatable=0;points=[[0,0.5],[1,0.5]];portConstraint=eastwest;rounded=0;shadow=0;html=0;" parent="wuCH2IQg_Po8L5Twyxa0-45" vertex="1">
          <mxGeometry y="26" width="370" height="26" as="geometry" />
        </mxCell>
        <mxCell id="wuCH2IQg_Po8L5Twyxa0-48" value="threshold" style="text;align=left;verticalAlign=top;spacingLeft=4;spacingRight=4;overflow=hidden;rotatable=0;points=[[0,0.5],[1,0.5]];portConstraint=eastwest;rounded=0;shadow=0;html=0;" parent="wuCH2IQg_Po8L5Twyxa0-45" vertex="1">
          <mxGeometry y="52" width="370" height="26" as="geometry" />
        </mxCell>
        <mxCell id="wuCH2IQg_Po8L5Twyxa0-49" value="modelPath" style="text;align=left;verticalAlign=top;spacingLeft=4;spacingRight=4;overflow=hidden;rotatable=0;points=[[0,0.5],[1,0.5]];portConstraint=eastwest;rounded=0;shadow=0;html=0;" parent="wuCH2IQg_Po8L5Twyxa0-45" vertex="1">
          <mxGeometry y="78" width="370" height="26" as="geometry" />
        </mxCell>
        <mxCell id="wuCH2IQg_Po8L5Twyxa0-51" value="colorFormat" style="text;align=left;verticalAlign=top;spacingLeft=4;spacingRight=4;overflow=hidden;rotatable=0;points=[[0,0.5],[1,0.5]];portConstraint=eastwest;rounded=0;shadow=0;html=0;" parent="wuCH2IQg_Po8L5Twyxa0-45" vertex="1">
          <mxGeometry y="104" width="370" height="26" as="geometry" />
        </mxCell>
        <mxCell id="wuCH2IQg_Po8L5Twyxa0-50" value="saveImg" style="text;align=left;verticalAlign=top;spacingLeft=4;spacingRight=4;overflow=hidden;rotatable=0;points=[[0,0.5],[1,0.5]];portConstraint=eastwest;rounded=0;shadow=0;html=0;" parent="wuCH2IQg_Po8L5Twyxa0-45" vertex="1">
          <mxGeometry y="130" width="370" height="26" as="geometry" />
        </mxCell>
        <mxCell id="wuCH2IQg_Po8L5Twyxa0-78" value="notifyUrl" style="text;align=left;verticalAlign=top;spacingLeft=4;spacingRight=4;overflow=hidden;rotatable=0;points=[[0,0.5],[1,0.5]];portConstraint=eastwest;rounded=0;shadow=0;html=0;" parent="wuCH2IQg_Po8L5Twyxa0-45" vertex="1">
          <mxGeometry y="156" width="370" height="26" as="geometry" />
        </mxCell>
        <mxCell id="wuCH2IQg_Po8L5Twyxa0-52" value="AwsS3Enable" style="text;align=left;verticalAlign=top;spacingLeft=4;spacingRight=4;overflow=hidden;rotatable=0;points=[[0,0.5],[1,0.5]];portConstraint=eastwest;rounded=0;shadow=0;html=0;" parent="wuCH2IQg_Po8L5Twyxa0-45" vertex="1">
          <mxGeometry y="182" width="370" height="26" as="geometry" />
        </mxCell>
        <mxCell id="wuCH2IQg_Po8L5Twyxa0-97" value="AwsS3" style="text;align=left;verticalAlign=top;spacingLeft=4;spacingRight=4;overflow=hidden;rotatable=0;points=[[0,0.5],[1,0.5]];portConstraint=eastwest;rounded=0;shadow=0;html=0;" parent="wuCH2IQg_Po8L5Twyxa0-45" vertex="1">
          <mxGeometry y="208" width="370" height="26" as="geometry" />
        </mxCell>
        <mxCell id="wuCH2IQg_Po8L5Twyxa0-53" value="" style="line;html=1;strokeWidth=1;align=left;verticalAlign=middle;spacingTop=-1;spacingLeft=3;spacingRight=3;rotatable=0;labelPosition=right;points=[];portConstraint=eastwest;" parent="wuCH2IQg_Po8L5Twyxa0-45" vertex="1">
          <mxGeometry y="234" width="370" height="8" as="geometry" />
        </mxCell>
        <mxCell id="wuCH2IQg_Po8L5Twyxa0-54" value="Work()" style="text;align=left;verticalAlign=top;spacingLeft=4;spacingRight=4;overflow=hidden;rotatable=0;points=[[0,0.5],[1,0.5]];portConstraint=eastwest;" parent="wuCH2IQg_Po8L5Twyxa0-45" vertex="1">
          <mxGeometry y="242" width="370" height="26" as="geometry" />
        </mxCell>
        <mxCell id="wuCH2IQg_Po8L5Twyxa0-56" value="Detection(&amp;src)" style="text;align=left;verticalAlign=top;spacingLeft=4;spacingRight=4;overflow=hidden;rotatable=0;points=[[0,0.5],[1,0.5]];portConstraint=eastwest;" parent="wuCH2IQg_Po8L5Twyxa0-45" vertex="1">
          <mxGeometry y="268" width="370" height="26" as="geometry" />
        </mxCell>
        <mxCell id="B-1sp_UQPxZxmX_SxxcJ-0" value="Recognize(&amp;src)" style="text;align=left;verticalAlign=top;spacingLeft=4;spacingRight=4;overflow=hidden;rotatable=0;points=[[0,0.5],[1,0.5]];portConstraint=eastwest;" parent="wuCH2IQg_Po8L5Twyxa0-45" vertex="1">
          <mxGeometry y="294" width="370" height="26" as="geometry" />
        </mxCell>
        <mxCell id="wuCH2IQg_Po8L5Twyxa0-59" value="saveImg()" style="text;align=left;verticalAlign=top;spacingLeft=4;spacingRight=4;overflow=hidden;rotatable=0;points=[[0,0.5],[1,0.5]];portConstraint=eastwest;" parent="wuCH2IQg_Po8L5Twyxa0-45" vertex="1">
          <mxGeometry y="320" width="370" height="26" as="geometry" />
        </mxCell>
        <mxCell id="wuCH2IQg_Po8L5Twyxa0-57" value="sendData" style="text;align=left;verticalAlign=top;spacingLeft=4;spacingRight=4;overflow=hidden;rotatable=0;points=[[0,0.5],[1,0.5]];portConstraint=eastwest;" parent="wuCH2IQg_Po8L5Twyxa0-45" vertex="1">
          <mxGeometry y="346" width="370" height="26" as="geometry" />
        </mxCell>
        <mxCell id="wuCH2IQg_Po8L5Twyxa0-98" value="vas::BackendType strToBackendType(const std::string&amp; backType)" style="text;align=left;verticalAlign=top;spacingLeft=4;spacingRight=4;overflow=hidden;rotatable=0;points=[[0,0.5],[1,0.5]];portConstraint=eastwest;" parent="wuCH2IQg_Po8L5Twyxa0-45" vertex="1">
          <mxGeometry y="372" width="370" height="26" as="geometry" />
        </mxCell>
        <mxCell id="wuCH2IQg_Po8L5Twyxa0-99" value="getCurrentTime()" style="text;align=left;verticalAlign=top;spacingLeft=4;spacingRight=4;overflow=hidden;rotatable=0;points=[[0,0.5],[1,0.5]];portConstraint=eastwest;" parent="wuCH2IQg_Po8L5Twyxa0-45" vertex="1">
          <mxGeometry y="398" width="370" height="26" as="geometry" />
        </mxCell>
        <mxCell id="wuCH2IQg_Po8L5Twyxa0-58" value="version()" style="text;align=left;verticalAlign=top;spacingLeft=4;spacingRight=4;overflow=hidden;rotatable=0;points=[[0,0.5],[1,0.5]];portConstraint=eastwest;" parent="wuCH2IQg_Po8L5Twyxa0-45" vertex="1">
          <mxGeometry y="424" width="370" height="26" as="geometry" />
        </mxCell>
        <mxCell id="wuCH2IQg_Po8L5Twyxa0-61" value="pvdWork" style="swimlane;fontStyle=0;align=center;verticalAlign=top;childLayout=stackLayout;horizontal=1;startSize=26;horizontalStack=0;resizeParent=1;resizeLast=0;collapsible=1;marginBottom=0;rounded=0;shadow=0;strokeWidth=1;" parent="WIyWlLk6GJQsqaUBKTNV-1" vertex="1">
          <mxGeometry x="750" y="732" width="300" height="398" as="geometry">
            <mxRectangle x="508" y="120" width="160" height="26" as="alternateBounds" />
          </mxGeometry>
        </mxCell>
        <mxCell id="wuCH2IQg_Po8L5Twyxa0-62" value="std::unique_ptr&lt;vas::fd::FaceDetector&gt; fd" style="text;align=left;verticalAlign=top;spacingLeft=4;spacingRight=4;overflow=hidden;rotatable=0;points=[[0,0.5],[1,0.5]];portConstraint=eastwest;" parent="wuCH2IQg_Po8L5Twyxa0-61" vertex="1">
          <mxGeometry y="26" width="300" height="26" as="geometry" />
        </mxCell>
        <mxCell id="wuCH2IQg_Po8L5Twyxa0-63" value="std::unique_ptr&lt;vas::fr::FaceRecognizer&gt; fr" style="text;align=left;verticalAlign=top;spacingLeft=4;spacingRight=4;overflow=hidden;rotatable=0;points=[[0,0.5],[1,0.5]];portConstraint=eastwest;" parent="wuCH2IQg_Po8L5Twyxa0-61" vertex="1">
          <mxGeometry y="52" width="300" height="26" as="geometry" />
        </mxCell>
        <mxCell id="wuCH2IQg_Po8L5Twyxa0-70" value="" style="line;html=1;strokeWidth=1;align=left;verticalAlign=middle;spacingTop=-1;spacingLeft=3;spacingRight=3;rotatable=0;labelPosition=right;points=[];portConstraint=eastwest;" parent="wuCH2IQg_Po8L5Twyxa0-61" vertex="1">
          <mxGeometry y="78" width="300" height="8" as="geometry" />
        </mxCell>
        <mxCell id="wuCH2IQg_Po8L5Twyxa0-71" value="FdWork()" style="text;align=left;verticalAlign=top;spacingLeft=4;spacingRight=4;overflow=hidden;rotatable=0;points=[[0,0.5],[1,0.5]];portConstraint=eastwest;" parent="wuCH2IQg_Po8L5Twyxa0-61" vertex="1">
          <mxGeometry y="86" width="300" height="26" as="geometry" />
        </mxCell>
        <mxCell id="wuCH2IQg_Po8L5Twyxa0-72" value="~FdWork()" style="text;align=left;verticalAlign=top;spacingLeft=4;spacingRight=4;overflow=hidden;rotatable=0;points=[[0,0.5],[1,0.5]];portConstraint=eastwest;" parent="wuCH2IQg_Po8L5Twyxa0-61" vertex="1">
          <mxGeometry y="112" width="300" height="26" as="geometry" />
        </mxCell>
        <mxCell id="wuCH2IQg_Po8L5Twyxa0-73" value="Register()/unRegister()" style="text;align=left;verticalAlign=top;spacingLeft=4;spacingRight=4;overflow=hidden;rotatable=0;points=[[0,0.5],[1,0.5]];portConstraint=eastwest;" parent="wuCH2IQg_Po8L5Twyxa0-61" vertex="1">
          <mxGeometry y="138" width="300" height="26" as="geometry" />
        </mxCell>
        <mxCell id="wuCH2IQg_Po8L5Twyxa0-74" value="Detection()" style="text;align=left;verticalAlign=top;spacingLeft=4;spacingRight=4;overflow=hidden;rotatable=0;points=[[0,0.5],[1,0.5]];portConstraint=eastwest;" parent="wuCH2IQg_Po8L5Twyxa0-61" vertex="1">
          <mxGeometry y="164" width="300" height="26" as="geometry" />
        </mxCell>
        <mxCell id="wuCH2IQg_Po8L5Twyxa0-75" value="doFaceRecoginze" style="text;align=left;verticalAlign=top;spacingLeft=4;spacingRight=4;overflow=hidden;rotatable=0;points=[[0,0.5],[1,0.5]];portConstraint=eastwest;" parent="wuCH2IQg_Po8L5Twyxa0-61" vertex="1">
          <mxGeometry y="190" width="300" height="26" as="geometry" />
        </mxCell>
        <mxCell id="wuCH2IQg_Po8L5Twyxa0-76" value="version()" style="text;align=left;verticalAlign=top;spacingLeft=4;spacingRight=4;overflow=hidden;rotatable=0;points=[[0,0.5],[1,0.5]];portConstraint=eastwest;" parent="wuCH2IQg_Po8L5Twyxa0-61" vertex="1">
          <mxGeometry y="216" width="300" height="26" as="geometry" />
        </mxCell>
        <mxCell id="wuCH2IQg_Po8L5Twyxa0-79" value="AwsS3" style="swimlane;fontStyle=0;align=center;verticalAlign=top;childLayout=stackLayout;horizontal=1;startSize=26;horizontalStack=0;resizeParent=1;resizeLast=0;collapsible=1;marginBottom=0;rounded=0;shadow=0;strokeWidth=1;" parent="WIyWlLk6GJQsqaUBKTNV-1" vertex="1">
          <mxGeometry x="580" y="330" width="300" height="372" as="geometry">
            <mxRectangle x="508" y="120" width="160" height="26" as="alternateBounds" />
          </mxGeometry>
        </mxCell>
        <mxCell id="wuCH2IQg_Po8L5Twyxa0-83" value="serviceId" style="text;align=left;verticalAlign=top;spacingLeft=4;spacingRight=4;overflow=hidden;rotatable=0;points=[[0,0.5],[1,0.5]];portConstraint=eastwest;rounded=0;shadow=0;html=0;" parent="wuCH2IQg_Po8L5Twyxa0-79" vertex="1">
          <mxGeometry y="26" width="300" height="26" as="geometry" />
        </mxCell>
        <mxCell id="wuCH2IQg_Po8L5Twyxa0-84" value="serviceKey" style="text;align=left;verticalAlign=top;spacingLeft=4;spacingRight=4;overflow=hidden;rotatable=0;points=[[0,0.5],[1,0.5]];portConstraint=eastwest;rounded=0;shadow=0;html=0;" parent="wuCH2IQg_Po8L5Twyxa0-79" vertex="1">
          <mxGeometry y="52" width="300" height="26" as="geometry" />
        </mxCell>
        <mxCell id="wuCH2IQg_Po8L5Twyxa0-80" value="endpoint" style="text;align=left;verticalAlign=top;spacingLeft=4;spacingRight=4;overflow=hidden;rotatable=0;points=[[0,0.5],[1,0.5]];portConstraint=eastwest;rounded=0;shadow=0;html=0;" parent="wuCH2IQg_Po8L5Twyxa0-79" vertex="1">
          <mxGeometry y="78" width="300" height="26" as="geometry" />
        </mxCell>
        <mxCell id="wuCH2IQg_Po8L5Twyxa0-85" value="use_ssl" style="text;align=left;verticalAlign=top;spacingLeft=4;spacingRight=4;overflow=hidden;rotatable=0;points=[[0,0.5],[1,0.5]];portConstraint=eastwest;rounded=0;shadow=0;html=0;" parent="wuCH2IQg_Po8L5Twyxa0-79" vertex="1">
          <mxGeometry y="104" width="300" height="26" as="geometry" />
        </mxCell>
        <mxCell id="wuCH2IQg_Po8L5Twyxa0-81" value="bucketName" style="text;align=left;verticalAlign=top;spacingLeft=4;spacingRight=4;overflow=hidden;rotatable=0;points=[[0,0.5],[1,0.5]];portConstraint=eastwest;rounded=0;shadow=0;html=0;" parent="wuCH2IQg_Po8L5Twyxa0-79" vertex="1">
          <mxGeometry y="130" width="300" height="26" as="geometry" />
        </mxCell>
        <mxCell id="wuCH2IQg_Po8L5Twyxa0-82" value="obs_prefix" style="text;align=left;verticalAlign=top;spacingLeft=4;spacingRight=4;overflow=hidden;rotatable=0;points=[[0,0.5],[1,0.5]];portConstraint=eastwest;rounded=0;shadow=0;html=0;" parent="wuCH2IQg_Po8L5Twyxa0-79" vertex="1">
          <mxGeometry y="156" width="300" height="26" as="geometry" />
        </mxCell>
        <mxCell id="wuCH2IQg_Po8L5Twyxa0-96" value="snap_img_path" style="text;align=left;verticalAlign=top;spacingLeft=4;spacingRight=4;overflow=hidden;rotatable=0;points=[[0,0.5],[1,0.5]];portConstraint=eastwest;rounded=0;shadow=0;html=0;" parent="wuCH2IQg_Po8L5Twyxa0-79" vertex="1">
          <mxGeometry y="182" width="300" height="26" as="geometry" />
        </mxCell>
        <mxCell id="wuCH2IQg_Po8L5Twyxa0-87" value="" style="line;html=1;strokeWidth=1;align=left;verticalAlign=middle;spacingTop=-1;spacingLeft=3;spacingRight=3;rotatable=0;labelPosition=right;points=[];portConstraint=eastwest;" parent="wuCH2IQg_Po8L5Twyxa0-79" vertex="1">
          <mxGeometry y="208" width="300" height="8" as="geometry" />
        </mxCell>
        <mxCell id="wuCH2IQg_Po8L5Twyxa0-88" value="GetPolicyString()" style="text;align=left;verticalAlign=top;spacingLeft=4;spacingRight=4;overflow=hidden;rotatable=0;points=[[0,0.5],[1,0.5]];portConstraint=eastwest;" parent="wuCH2IQg_Po8L5Twyxa0-79" vertex="1">
          <mxGeometry y="216" width="300" height="26" as="geometry" />
        </mxCell>
        <mxCell id="wuCH2IQg_Po8L5Twyxa0-89" value="PutBucketPolicy()" style="text;align=left;verticalAlign=top;spacingLeft=4;spacingRight=4;overflow=hidden;rotatable=0;points=[[0,0.5],[1,0.5]];portConstraint=eastwest;" parent="wuCH2IQg_Po8L5Twyxa0-79" vertex="1">
          <mxGeometry y="242" width="300" height="26" as="geometry" />
        </mxCell>
        <mxCell id="wuCH2IQg_Po8L5Twyxa0-90" value="uplaod_to_obs_s3()" style="text;align=left;verticalAlign=top;spacingLeft=4;spacingRight=4;overflow=hidden;rotatable=0;points=[[0,0.5],[1,0.5]];portConstraint=eastwest;" parent="wuCH2IQg_Po8L5Twyxa0-79" vertex="1">
          <mxGeometry y="268" width="300" height="26" as="geometry" />
        </mxCell>
        <mxCell id="wuCH2IQg_Po8L5Twyxa0-91" value="DeleteObject()" style="text;align=left;verticalAlign=top;spacingLeft=4;spacingRight=4;overflow=hidden;rotatable=0;points=[[0,0.5],[1,0.5]];portConstraint=eastwest;" parent="wuCH2IQg_Po8L5Twyxa0-79" vertex="1">
          <mxGeometry y="294" width="300" height="26" as="geometry" />
        </mxCell>
        <mxCell id="wuCH2IQg_Po8L5Twyxa0-92" value="version()" style="text;align=left;verticalAlign=top;spacingLeft=4;spacingRight=4;overflow=hidden;rotatable=0;points=[[0,0.5],[1,0.5]];portConstraint=eastwest;" parent="wuCH2IQg_Po8L5Twyxa0-79" vertex="1">
          <mxGeometry y="320" width="300" height="26" as="geometry" />
        </mxCell>
        <mxCell id="4Y4kIFAbHCbc3e0_oAzH-7" style="edgeStyle=orthogonalEdgeStyle;rounded=0;orthogonalLoop=1;jettySize=auto;html=1;entryX=1.025;entryY=0.65;entryDx=0;entryDy=0;entryPerimeter=0;" parent="WIyWlLk6GJQsqaUBKTNV-1" source="4Y4kIFAbHCbc3e0_oAzH-2" target="4Y4kIFAbHCbc3e0_oAzH-4" edge="1">
          <mxGeometry relative="1" as="geometry">
            <Array as="points">
              <mxPoint x="-300" y="1800" />
              <mxPoint x="-430" y="1800" />
              <mxPoint x="-430" y="1726" />
            </Array>
          </mxGeometry>
        </mxCell>
        <mxCell id="4Y4kIFAbHCbc3e0_oAzH-9" value="receive" style="edgeLabel;html=1;align=center;verticalAlign=middle;resizable=0;points=[];" parent="4Y4kIFAbHCbc3e0_oAzH-7" vertex="1" connectable="0">
          <mxGeometry x="-0.1213" y="-3" relative="1" as="geometry">
            <mxPoint as="offset" />
          </mxGeometry>
        </mxCell>
        <mxCell id="4Y4kIFAbHCbc3e0_oAzH-11" style="edgeStyle=orthogonalEdgeStyle;rounded=0;orthogonalLoop=1;jettySize=auto;html=1;entryX=1.008;entryY=0.6;entryDx=0;entryDy=0;entryPerimeter=0;" parent="WIyWlLk6GJQsqaUBKTNV-1" source="4Y4kIFAbHCbc3e0_oAzH-2" target="4Y4kIFAbHCbc3e0_oAzH-10" edge="1">
          <mxGeometry relative="1" as="geometry" />
        </mxCell>
        <mxCell id="4Y4kIFAbHCbc3e0_oAzH-13" value="send" style="edgeLabel;html=1;align=center;verticalAlign=middle;resizable=0;points=[];" parent="4Y4kIFAbHCbc3e0_oAzH-11" vertex="1" connectable="0">
          <mxGeometry x="-0.1339" y="-2" relative="1" as="geometry">
            <mxPoint x="1" as="offset" />
          </mxGeometry>
        </mxCell>
        <mxCell id="4Y4kIFAbHCbc3e0_oAzH-2" value="service" style="ellipse;whiteSpace=wrap;html=1;fillColor=none;" parent="WIyWlLk6GJQsqaUBKTNV-1" vertex="1">
          <mxGeometry x="-350" y="1880" width="120" height="80" as="geometry" />
        </mxCell>
        <mxCell id="4Y4kIFAbHCbc3e0_oAzH-6" style="edgeStyle=orthogonalEdgeStyle;rounded=0;orthogonalLoop=1;jettySize=auto;html=1;" parent="WIyWlLk6GJQsqaUBKTNV-1" source="4Y4kIFAbHCbc3e0_oAzH-3" target="4Y4kIFAbHCbc3e0_oAzH-4" edge="1">
          <mxGeometry relative="1" as="geometry">
            <Array as="points">
              <mxPoint x="-700" y="1840" />
              <mxPoint x="-580" y="1840" />
              <mxPoint x="-580" y="1714" />
            </Array>
          </mxGeometry>
        </mxCell>
        <mxCell id="4Y4kIFAbHCbc3e0_oAzH-8" value="send" style="edgeLabel;html=1;align=center;verticalAlign=middle;resizable=0;points=[];" parent="4Y4kIFAbHCbc3e0_oAzH-6" vertex="1" connectable="0">
          <mxGeometry x="-0.0552" y="-4" relative="1" as="geometry">
            <mxPoint as="offset" />
          </mxGeometry>
        </mxCell>
        <mxCell id="4Y4kIFAbHCbc3e0_oAzH-12" style="edgeStyle=orthogonalEdgeStyle;rounded=0;orthogonalLoop=1;jettySize=auto;html=1;entryX=0;entryY=0.588;entryDx=0;entryDy=0;entryPerimeter=0;" parent="WIyWlLk6GJQsqaUBKTNV-1" source="4Y4kIFAbHCbc3e0_oAzH-3" target="4Y4kIFAbHCbc3e0_oAzH-10" edge="1">
          <mxGeometry relative="1" as="geometry" />
        </mxCell>
        <mxCell id="4Y4kIFAbHCbc3e0_oAzH-15" value="receive" style="edgeLabel;html=1;align=center;verticalAlign=middle;resizable=0;points=[];" parent="4Y4kIFAbHCbc3e0_oAzH-12" vertex="1" connectable="0">
          <mxGeometry x="-0.1975" y="-2" relative="1" as="geometry">
            <mxPoint as="offset" />
          </mxGeometry>
        </mxCell>
        <mxCell id="4Y4kIFAbHCbc3e0_oAzH-3" value="client" style="ellipse;whiteSpace=wrap;html=1;fillColor=none;" parent="WIyWlLk6GJQsqaUBKTNV-1" vertex="1">
          <mxGeometry x="-760" y="1880" width="120" height="80" as="geometry" />
        </mxCell>
        <mxCell id="4Y4kIFAbHCbc3e0_oAzH-4" value="rpc queue" style="ellipse;whiteSpace=wrap;html=1;fillColor=none;" parent="WIyWlLk6GJQsqaUBKTNV-1" vertex="1">
          <mxGeometry x="-570" y="1674" width="120" height="80" as="geometry" />
        </mxCell>
        <mxCell id="4Y4kIFAbHCbc3e0_oAzH-10" value="callback queue" style="ellipse;whiteSpace=wrap;html=1;fillColor=none;" parent="WIyWlLk6GJQsqaUBKTNV-1" vertex="1">
          <mxGeometry x="-570" y="1960" width="120" height="80" as="geometry" />
        </mxCell>
        <mxCell id="4Y4kIFAbHCbc3e0_oAzH-16" style="edgeStyle=orthogonalEdgeStyle;rounded=0;orthogonalLoop=1;jettySize=auto;html=1;entryX=1.025;entryY=0.65;entryDx=0;entryDy=0;entryPerimeter=0;" parent="WIyWlLk6GJQsqaUBKTNV-1" source="4Y4kIFAbHCbc3e0_oAzH-20" target="4Y4kIFAbHCbc3e0_oAzH-26" edge="1">
          <mxGeometry relative="1" as="geometry">
            <Array as="points">
              <mxPoint x="520" y="1852" />
            </Array>
          </mxGeometry>
        </mxCell>
        <mxCell id="4Y4kIFAbHCbc3e0_oAzH-17" value="receive" style="edgeLabel;html=1;align=center;verticalAlign=middle;resizable=0;points=[];" parent="4Y4kIFAbHCbc3e0_oAzH-16" vertex="1" connectable="0">
          <mxGeometry x="-0.1213" y="-3" relative="1" as="geometry">
            <mxPoint as="offset" />
          </mxGeometry>
        </mxCell>
        <mxCell id="4Y4kIFAbHCbc3e0_oAzH-18" style="edgeStyle=orthogonalEdgeStyle;rounded=0;orthogonalLoop=1;jettySize=auto;html=1;entryX=1.008;entryY=0.6;entryDx=0;entryDy=0;entryPerimeter=0;" parent="WIyWlLk6GJQsqaUBKTNV-1" source="4Y4kIFAbHCbc3e0_oAzH-20" target="4Y4kIFAbHCbc3e0_oAzH-27" edge="1">
          <mxGeometry relative="1" as="geometry">
            <Array as="points">
              <mxPoint x="520" y="1948" />
            </Array>
          </mxGeometry>
        </mxCell>
        <mxCell id="4Y4kIFAbHCbc3e0_oAzH-19" value="send" style="edgeLabel;html=1;align=center;verticalAlign=middle;resizable=0;points=[];" parent="4Y4kIFAbHCbc3e0_oAzH-18" vertex="1" connectable="0">
          <mxGeometry x="-0.1339" y="-2" relative="1" as="geometry">
            <mxPoint x="1" as="offset" />
          </mxGeometry>
        </mxCell>
        <mxCell id="4Y4kIFAbHCbc3e0_oAzH-20" value="box" style="ellipse;whiteSpace=wrap;html=1;fillColor=#FF9999;" parent="WIyWlLk6GJQsqaUBKTNV-1" vertex="1">
          <mxGeometry x="450" y="1905" width="180" height="90" as="geometry">
            <mxRectangle x="450" y="1860" width="50" height="20" as="alternateBounds" />
          </mxGeometry>
        </mxCell>
        <mxCell id="_RRa5o4qMN4HHWpRwE-u-2" value="face register&lt;br&gt;service" style="ellipse;whiteSpace=wrap;html=1;aspect=fixed;fillColor=none;" parent="4Y4kIFAbHCbc3e0_oAzH-20" vertex="1">
          <mxGeometry x="10" y="15" width="60" height="60" as="geometry" />
        </mxCell>
        <mxCell id="4Y4kIFAbHCbc3e0_oAzH-28" value="gplugin" style="ellipse;whiteSpace=wrap;html=1;aspect=fixed;fillColor=none;" parent="4Y4kIFAbHCbc3e0_oAzH-20" vertex="1">
          <mxGeometry x="110" y="25" width="50" height="50" as="geometry" />
        </mxCell>
        <mxCell id="4Y4kIFAbHCbc3e0_oAzH-21" style="edgeStyle=orthogonalEdgeStyle;rounded=0;orthogonalLoop=1;jettySize=auto;html=1;entryX=-0.015;entryY=0.694;entryDx=0;entryDy=0;entryPerimeter=0;" parent="WIyWlLk6GJQsqaUBKTNV-1" source="4Y4kIFAbHCbc3e0_oAzH-25" target="4Y4kIFAbHCbc3e0_oAzH-26" edge="1">
          <mxGeometry relative="1" as="geometry">
            <Array as="points">
              <mxPoint x="-130" y="1856" />
            </Array>
            <mxPoint x="80" y="1900" as="targetPoint" />
          </mxGeometry>
        </mxCell>
        <mxCell id="4Y4kIFAbHCbc3e0_oAzH-22" value="send" style="edgeLabel;html=1;align=center;verticalAlign=middle;resizable=0;points=[];" parent="4Y4kIFAbHCbc3e0_oAzH-21" vertex="1" connectable="0">
          <mxGeometry x="-0.0552" y="-4" relative="1" as="geometry">
            <mxPoint as="offset" />
          </mxGeometry>
        </mxCell>
        <mxCell id="4Y4kIFAbHCbc3e0_oAzH-23" style="edgeStyle=orthogonalEdgeStyle;rounded=0;orthogonalLoop=1;jettySize=auto;html=1;entryX=0;entryY=0.588;entryDx=0;entryDy=0;entryPerimeter=0;" parent="WIyWlLk6GJQsqaUBKTNV-1" source="4Y4kIFAbHCbc3e0_oAzH-25" target="4Y4kIFAbHCbc3e0_oAzH-27" edge="1">
          <mxGeometry relative="1" as="geometry">
            <Array as="points">
              <mxPoint x="-130" y="1947" />
            </Array>
          </mxGeometry>
        </mxCell>
        <mxCell id="4Y4kIFAbHCbc3e0_oAzH-24" value="receive" style="edgeLabel;html=1;align=center;verticalAlign=middle;resizable=0;points=[];" parent="4Y4kIFAbHCbc3e0_oAzH-23" vertex="1" connectable="0">
          <mxGeometry x="-0.1975" y="-2" relative="1" as="geometry">
            <mxPoint as="offset" />
          </mxGeometry>
        </mxCell>
        <mxCell id="4Y4kIFAbHCbc3e0_oAzH-33" style="edgeStyle=orthogonalEdgeStyle;rounded=0;orthogonalLoop=1;jettySize=auto;html=1;entryX=0;entryY=0.5;entryDx=0;entryDy=0;" parent="WIyWlLk6GJQsqaUBKTNV-1" source="4Y4kIFAbHCbc3e0_oAzH-25" target="4Y4kIFAbHCbc3e0_oAzH-63" edge="1">
          <mxGeometry relative="1" as="geometry">
            <mxPoint x="150" y="2100" as="targetPoint" />
            <Array as="points">
              <mxPoint x="-130" y="2070" />
            </Array>
          </mxGeometry>
        </mxCell>
        <mxCell id="4Y4kIFAbHCbc3e0_oAzH-68" value="receive" style="edgeLabel;html=1;align=center;verticalAlign=middle;resizable=0;points=[];" parent="4Y4kIFAbHCbc3e0_oAzH-33" vertex="1" connectable="0">
          <mxGeometry x="0.2722" relative="1" as="geometry">
            <mxPoint as="offset" />
          </mxGeometry>
        </mxCell>
        <mxCell id="4Y4kIFAbHCbc3e0_oAzH-25" value="mtgl" style="ellipse;whiteSpace=wrap;html=1;fillColor=#FF9999;" parent="WIyWlLk6GJQsqaUBKTNV-1" vertex="1">
          <mxGeometry x="-200" y="1910" width="120" height="80" as="geometry" />
        </mxCell>
        <mxCell id="4Y4kIFAbHCbc3e0_oAzH-26" value="rpc queue" style="ellipse;whiteSpace=wrap;html=1;strokeColor=#33FFFF;fillColor=#33FFFF;" parent="WIyWlLk6GJQsqaUBKTNV-1" vertex="1">
          <mxGeometry x="140" y="1800" width="120" height="80" as="geometry" />
        </mxCell>
        <mxCell id="4Y4kIFAbHCbc3e0_oAzH-27" value="callback queue" style="ellipse;whiteSpace=wrap;html=1;strokeColor=#33FFFF;fillColor=#33FFFF;" parent="WIyWlLk6GJQsqaUBKTNV-1" vertex="1">
          <mxGeometry x="140" y="1900" width="120" height="80" as="geometry" />
        </mxCell>
        <mxCell id="4Y4kIFAbHCbc3e0_oAzH-57" style="edgeStyle=orthogonalEdgeStyle;rounded=0;orthogonalLoop=1;jettySize=auto;html=1;" parent="WIyWlLk6GJQsqaUBKTNV-1" source="4Y4kIFAbHCbc3e0_oAzH-28" target="4Y4kIFAbHCbc3e0_oAzH-30" edge="1">
          <mxGeometry relative="1" as="geometry">
            <Array as="points">
              <mxPoint x="585" y="2330" />
            </Array>
          </mxGeometry>
        </mxCell>
        <mxCell id="4Y4kIFAbHCbc3e0_oAzH-58" value="publish" style="edgeLabel;html=1;align=center;verticalAlign=middle;resizable=0;points=[];" parent="4Y4kIFAbHCbc3e0_oAzH-57" vertex="1" connectable="0">
          <mxGeometry x="-0.1837" y="-1" relative="1" as="geometry">
            <mxPoint as="offset" />
          </mxGeometry>
        </mxCell>
        <mxCell id="4Y4kIFAbHCbc3e0_oAzH-30" value="exchange" style="ellipse;whiteSpace=wrap;html=1;strokeColor=#33FFFF;fillColor=#33FFFF;" parent="WIyWlLk6GJQsqaUBKTNV-1" vertex="1">
          <mxGeometry x="350" y="2290" width="120" height="80" as="geometry" />
        </mxCell>
        <mxCell id="4Y4kIFAbHCbc3e0_oAzH-36" style="edgeStyle=orthogonalEdgeStyle;rounded=0;orthogonalLoop=1;jettySize=auto;html=1;" parent="WIyWlLk6GJQsqaUBKTNV-1" source="4Y4kIFAbHCbc3e0_oAzH-35" target="4Y4kIFAbHCbc3e0_oAzH-39" edge="1">
          <mxGeometry relative="1" as="geometry">
            <mxPoint x="-10" y="2220" as="targetPoint" />
          </mxGeometry>
        </mxCell>
        <mxCell id="4Y4kIFAbHCbc3e0_oAzH-37" value="sub" style="edgeLabel;html=1;align=center;verticalAlign=middle;resizable=0;points=[];" parent="4Y4kIFAbHCbc3e0_oAzH-36" vertex="1" connectable="0">
          <mxGeometry x="-0.4317" y="-2" relative="1" as="geometry">
            <mxPoint as="offset" />
          </mxGeometry>
        </mxCell>
        <mxCell id="4Y4kIFAbHCbc3e0_oAzH-35" value="smartsite" style="ellipse;whiteSpace=wrap;html=1;fillColor=#FF9999;" parent="WIyWlLk6GJQsqaUBKTNV-1" vertex="1">
          <mxGeometry x="-180" y="2130" width="120" height="80" as="geometry" />
        </mxCell>
        <mxCell id="4Y4kIFAbHCbc3e0_oAzH-70" style="edgeStyle=orthogonalEdgeStyle;rounded=0;orthogonalLoop=1;jettySize=auto;html=1;entryX=0;entryY=0.5;entryDx=0;entryDy=0;" parent="WIyWlLk6GJQsqaUBKTNV-1" source="4Y4kIFAbHCbc3e0_oAzH-39" target="4Y4kIFAbHCbc3e0_oAzH-30" edge="1">
          <mxGeometry relative="1" as="geometry" />
        </mxCell>
        <mxCell id="4Y4kIFAbHCbc3e0_oAzH-39" value="queue" style="ellipse;whiteSpace=wrap;html=1;strokeColor=#33FFFF;fillColor=#33FFFF;" parent="WIyWlLk6GJQsqaUBKTNV-1" vertex="1">
          <mxGeometry x="10" y="2130" width="120" height="80" as="geometry" />
        </mxCell>
        <mxCell id="4Y4kIFAbHCbc3e0_oAzH-43" style="edgeStyle=orthogonalEdgeStyle;rounded=0;orthogonalLoop=1;jettySize=auto;html=1;" parent="WIyWlLk6GJQsqaUBKTNV-1" source="4Y4kIFAbHCbc3e0_oAzH-45" target="4Y4kIFAbHCbc3e0_oAzH-46" edge="1">
          <mxGeometry relative="1" as="geometry">
            <mxPoint x="-10" y="2340" as="targetPoint" />
          </mxGeometry>
        </mxCell>
        <mxCell id="4Y4kIFAbHCbc3e0_oAzH-44" value="sub" style="edgeLabel;html=1;align=center;verticalAlign=middle;resizable=0;points=[];" parent="4Y4kIFAbHCbc3e0_oAzH-43" vertex="1" connectable="0">
          <mxGeometry x="-0.4317" y="-2" relative="1" as="geometry">
            <mxPoint as="offset" />
          </mxGeometry>
        </mxCell>
        <mxCell id="4Y4kIFAbHCbc3e0_oAzH-45" value="smartsite" style="ellipse;whiteSpace=wrap;html=1;fillColor=#FF9999;" parent="WIyWlLk6GJQsqaUBKTNV-1" vertex="1">
          <mxGeometry x="-180" y="2250" width="120" height="80" as="geometry" />
        </mxCell>
        <mxCell id="4Y4kIFAbHCbc3e0_oAzH-74" style="edgeStyle=orthogonalEdgeStyle;rounded=0;orthogonalLoop=1;jettySize=auto;html=1;entryX=0;entryY=0.5;entryDx=0;entryDy=0;" parent="WIyWlLk6GJQsqaUBKTNV-1" source="4Y4kIFAbHCbc3e0_oAzH-46" target="4Y4kIFAbHCbc3e0_oAzH-30" edge="1">
          <mxGeometry relative="1" as="geometry">
            <Array as="points">
              <mxPoint x="240" y="2290" />
              <mxPoint x="240" y="2330" />
            </Array>
          </mxGeometry>
        </mxCell>
        <mxCell id="4Y4kIFAbHCbc3e0_oAzH-46" value="queue" style="ellipse;whiteSpace=wrap;html=1;strokeColor=#33FFFF;fillColor=#33FFFF;" parent="WIyWlLk6GJQsqaUBKTNV-1" vertex="1">
          <mxGeometry x="10" y="2250" width="120" height="80" as="geometry" />
        </mxCell>
        <mxCell id="4Y4kIFAbHCbc3e0_oAzH-47" style="edgeStyle=orthogonalEdgeStyle;rounded=0;orthogonalLoop=1;jettySize=auto;html=1;" parent="WIyWlLk6GJQsqaUBKTNV-1" source="4Y4kIFAbHCbc3e0_oAzH-49" target="4Y4kIFAbHCbc3e0_oAzH-50" edge="1">
          <mxGeometry relative="1" as="geometry">
            <mxPoint x="-10" y="2450" as="targetPoint" />
          </mxGeometry>
        </mxCell>
        <mxCell id="4Y4kIFAbHCbc3e0_oAzH-48" value="sub" style="edgeLabel;html=1;align=center;verticalAlign=middle;resizable=0;points=[];" parent="4Y4kIFAbHCbc3e0_oAzH-47" vertex="1" connectable="0">
          <mxGeometry x="-0.4317" y="-2" relative="1" as="geometry">
            <mxPoint as="offset" />
          </mxGeometry>
        </mxCell>
        <mxCell id="4Y4kIFAbHCbc3e0_oAzH-49" value="smartsite" style="ellipse;whiteSpace=wrap;html=1;fillColor=#FF9999;" parent="WIyWlLk6GJQsqaUBKTNV-1" vertex="1">
          <mxGeometry x="-180" y="2360" width="120" height="80" as="geometry" />
        </mxCell>
        <mxCell id="4Y4kIFAbHCbc3e0_oAzH-72" style="edgeStyle=orthogonalEdgeStyle;rounded=0;orthogonalLoop=1;jettySize=auto;html=1;entryX=0;entryY=0.5;entryDx=0;entryDy=0;" parent="WIyWlLk6GJQsqaUBKTNV-1" source="4Y4kIFAbHCbc3e0_oAzH-50" target="4Y4kIFAbHCbc3e0_oAzH-30" edge="1">
          <mxGeometry relative="1" as="geometry">
            <Array as="points">
              <mxPoint x="240" y="2400" />
              <mxPoint x="240" y="2330" />
            </Array>
          </mxGeometry>
        </mxCell>
        <mxCell id="4Y4kIFAbHCbc3e0_oAzH-50" value="queue" style="ellipse;whiteSpace=wrap;html=1;strokeColor=#33FFFF;fillColor=#33FFFF;" parent="WIyWlLk6GJQsqaUBKTNV-1" vertex="1">
          <mxGeometry x="10" y="2360" width="120" height="80" as="geometry" />
        </mxCell>
        <mxCell id="4Y4kIFAbHCbc3e0_oAzH-51" style="edgeStyle=orthogonalEdgeStyle;rounded=0;orthogonalLoop=1;jettySize=auto;html=1;" parent="WIyWlLk6GJQsqaUBKTNV-1" source="4Y4kIFAbHCbc3e0_oAzH-53" target="4Y4kIFAbHCbc3e0_oAzH-54" edge="1">
          <mxGeometry relative="1" as="geometry">
            <mxPoint x="-10" y="2570" as="targetPoint" />
          </mxGeometry>
        </mxCell>
        <mxCell id="4Y4kIFAbHCbc3e0_oAzH-52" value="sub" style="edgeLabel;html=1;align=center;verticalAlign=middle;resizable=0;points=[];" parent="4Y4kIFAbHCbc3e0_oAzH-51" vertex="1" connectable="0">
          <mxGeometry x="-0.4317" y="-2" relative="1" as="geometry">
            <mxPoint as="offset" />
          </mxGeometry>
        </mxCell>
        <mxCell id="4Y4kIFAbHCbc3e0_oAzH-53" value="smartsite" style="ellipse;whiteSpace=wrap;html=1;fillColor=#FF9999;" parent="WIyWlLk6GJQsqaUBKTNV-1" vertex="1">
          <mxGeometry x="-180" y="2480" width="120" height="80" as="geometry" />
        </mxCell>
        <mxCell id="4Y4kIFAbHCbc3e0_oAzH-73" style="edgeStyle=orthogonalEdgeStyle;rounded=0;orthogonalLoop=1;jettySize=auto;html=1;entryX=0;entryY=0.5;entryDx=0;entryDy=0;" parent="WIyWlLk6GJQsqaUBKTNV-1" source="4Y4kIFAbHCbc3e0_oAzH-54" target="4Y4kIFAbHCbc3e0_oAzH-30" edge="1">
          <mxGeometry relative="1" as="geometry">
            <mxPoint x="200" y="2350" as="targetPoint" />
            <Array as="points">
              <mxPoint x="240" y="2520" />
              <mxPoint x="240" y="2330" />
            </Array>
          </mxGeometry>
        </mxCell>
        <mxCell id="4Y4kIFAbHCbc3e0_oAzH-54" value="queue" style="ellipse;whiteSpace=wrap;html=1;strokeColor=#33FFFF;fillColor=#33FFFF;" parent="WIyWlLk6GJQsqaUBKTNV-1" vertex="1">
          <mxGeometry x="10" y="2480" width="120" height="80" as="geometry" />
        </mxCell>
        <mxCell id="4Y4kIFAbHCbc3e0_oAzH-60" style="edgeStyle=orthogonalEdgeStyle;rounded=0;orthogonalLoop=1;jettySize=auto;html=1;exitX=0;exitY=1;exitDx=0;exitDy=0;" parent="WIyWlLk6GJQsqaUBKTNV-1" source="4Y4kIFAbHCbc3e0_oAzH-28" target="4Y4kIFAbHCbc3e0_oAzH-63" edge="1">
          <mxGeometry relative="1" as="geometry">
            <Array as="points">
              <mxPoint x="560" y="1973" />
              <mxPoint x="560" y="2080" />
            </Array>
            <mxPoint x="420.00000000000045" y="2030" as="sourcePoint" />
          </mxGeometry>
        </mxCell>
        <mxCell id="4Y4kIFAbHCbc3e0_oAzH-61" value="send" style="edgeLabel;html=1;align=center;verticalAlign=middle;resizable=0;points=[];" parent="4Y4kIFAbHCbc3e0_oAzH-60" vertex="1" connectable="0">
          <mxGeometry x="-0.1837" y="-1" relative="1" as="geometry">
            <mxPoint x="-40" as="offset" />
          </mxGeometry>
        </mxCell>
        <mxCell id="4Y4kIFAbHCbc3e0_oAzH-63" value="work queue" style="ellipse;whiteSpace=wrap;html=1;strokeColor=#33FFFF;fillColor=#33FFFF;" parent="WIyWlLk6GJQsqaUBKTNV-1" vertex="1">
          <mxGeometry x="140" y="2030" width="120" height="80" as="geometry" />
        </mxCell>
        <mxCell id="_RRa5o4qMN4HHWpRwE-u-1" value="&lt;span&gt;设备添加:&lt;/span&gt;&lt;br&gt;&lt;blockquote style=&quot;margin: 0 0 0 40px ; border: none ; padding: 0px&quot;&gt;&lt;/blockquote&gt;&lt;ul&gt;&lt;li&gt;&lt;span&gt;mtgl add deviceName （create rpcQueue）&lt;/span&gt;&lt;/li&gt;&lt;li&gt;&lt;span&gt;box&amp;nbsp; &amp;nbsp;receive rpcQueue&lt;/span&gt;&lt;/li&gt;&lt;/ul&gt;&lt;span&gt;&amp;nbsp;摄像机添加、修改、删除、查询、启动、停止:&lt;br&gt;&lt;ul&gt;&lt;li&gt;choose device&lt;/li&gt;&lt;li&gt;add/edit/delete/querry/starrt/stop camera info (send rpcQueue)&lt;/li&gt;&lt;/ul&gt;&lt;/span&gt;录像、任务同上;&lt;br&gt;算法分析结果添加,其余同上:&lt;br&gt;&lt;ul&gt;&lt;li&gt;sub analyticIdResultQueue&amp;nbsp;&lt;/li&gt;&lt;/ul&gt;人脸识别注册，其余同上:&lt;br&gt;&lt;ul&gt;&lt;li&gt;choose device&lt;/li&gt;&lt;li&gt;face register/unregister&lt;span style=&quot;white-space: pre&quot;&gt; &lt;/span&gt;&lt;/li&gt;&lt;/ul&gt;" style="rounded=0;whiteSpace=wrap;html=1;align=left;container=1;shadow=0;" parent="WIyWlLk6GJQsqaUBKTNV-1" vertex="1">
          <mxGeometry x="630" y="2040" width="360" height="430" as="geometry">
            <mxRectangle x="620" y="1970" width="400" height="270" as="alternateBounds" />
          </mxGeometry>
        </mxCell>
        <mxCell id="ar3VlsiydCS9kkMV2LeA-3" value="box" style="ellipse;whiteSpace=wrap;html=1;fillColor=#d5e8d4;strokeColor=#82b366;container=1;" vertex="1" parent="WIyWlLk6GJQsqaUBKTNV-1">
          <mxGeometry x="-450" y="2870" width="750" height="430" as="geometry">
            <mxRectangle x="450" y="1860" width="50" height="20" as="alternateBounds" />
          </mxGeometry>
        </mxCell>
        <mxCell id="ar3VlsiydCS9kkMV2LeA-7" value="mcu" style="whiteSpace=wrap;html=1;aspect=fixed;fillColor=#ffe6cc;strokeColor=#d79b00;" vertex="1" parent="ar3VlsiydCS9kkMV2LeA-3">
          <mxGeometry x="170" y="90" width="80" height="80" as="geometry" />
        </mxCell>
        <mxCell id="ar3VlsiydCS9kkMV2LeA-8" value="edgemgr" style="whiteSpace=wrap;html=1;aspect=fixed;fillColor=#ffe6cc;strokeColor=#d79b00;" vertex="1" parent="ar3VlsiydCS9kkMV2LeA-3">
          <mxGeometry x="510" y="90" width="80" height="80" as="geometry" />
        </mxCell>
        <mxCell id="ar3VlsiydCS9kkMV2LeA-6" value="smartsite" style="ellipse;whiteSpace=wrap;html=1;fillColor=#d5e8d4;strokeColor=#82b366;" vertex="1" parent="ar3VlsiydCS9kkMV2LeA-3">
          <mxGeometry x="205" y="240" width="340" height="160" as="geometry">
            <mxRectangle x="450" y="1860" width="50" height="20" as="alternateBounds" />
          </mxGeometry>
        </mxCell>
        <mxCell id="ar3VlsiydCS9kkMV2LeA-10" value="recording" style="ellipse;whiteSpace=wrap;html=1;aspect=fixed;" vertex="1" parent="WIyWlLk6GJQsqaUBKTNV-1">
          <mxGeometry x="680" y="2850" width="80" height="80" as="geometry" />
        </mxCell>
        <mxCell id="ar3VlsiydCS9kkMV2LeA-11" value="analytic" style="ellipse;whiteSpace=wrap;html=1;aspect=fixed;" vertex="1" parent="WIyWlLk6GJQsqaUBKTNV-1">
          <mxGeometry x="690" y="2610" width="80" height="80" as="geometry" />
        </mxCell>
        <mxCell id="ar3VlsiydCS9kkMV2LeA-12" value="camera" style="ellipse;whiteSpace=wrap;html=1;aspect=fixed;" vertex="1" parent="WIyWlLk6GJQsqaUBKTNV-1">
          <mxGeometry x="470" y="2720" width="80" height="80" as="geometry" />
        </mxCell>
        <mxCell id="ar3VlsiydCS9kkMV2LeA-13" value="&lt;pre style=&quot;background-color: rgb(255 , 255 , 255) ; font-family: &amp;#34;jetbrains mono&amp;#34; ; font-size: 9.8pt&quot;&gt;storageHost&lt;/pre&gt;" style="ellipse;whiteSpace=wrap;html=1;aspect=fixed;" vertex="1" parent="WIyWlLk6GJQsqaUBKTNV-1">
          <mxGeometry x="860" y="2750" width="80" height="80" as="geometry" />
        </mxCell>
        <mxCell id="ar3VlsiydCS9kkMV2LeA-14" value="&lt;pre style=&quot;background-color: rgb(255 , 255 , 255) ; font-family: &amp;#34;jetbrains mono&amp;#34; ; font-size: 9.8pt&quot;&gt;storageHost&lt;/pre&gt;" style="ellipse;whiteSpace=wrap;html=1;aspect=fixed;" vertex="1" parent="WIyWlLk6GJQsqaUBKTNV-1">
          <mxGeometry x="860" y="2842" width="80" height="80" as="geometry" />
        </mxCell>
        <mxCell id="ar3VlsiydCS9kkMV2LeA-15" value="&lt;pre style=&quot;background-color: rgb(255 , 255 , 255) ; font-family: &amp;#34;jetbrains mono&amp;#34; ; font-size: 9.8pt&quot;&gt;storageHost&lt;/pre&gt;" style="ellipse;whiteSpace=wrap;html=1;aspect=fixed;" vertex="1" parent="WIyWlLk6GJQsqaUBKTNV-1">
          <mxGeometry x="860" y="2930" width="80" height="80" as="geometry" />
        </mxCell>
        <mxCell id="ar3VlsiydCS9kkMV2LeA-16" value="mtgl" style="ellipse;whiteSpace=wrap;html=1;fillColor=#d5e8d4;strokeColor=#82b366;container=1;" vertex="1" parent="WIyWlLk6GJQsqaUBKTNV-1">
          <mxGeometry x="365.6" y="3040" width="494.4" height="160" as="geometry">
            <mxRectangle x="450" y="1860" width="50" height="20" as="alternateBounds" />
          </mxGeometry>
        </mxCell>
        <mxCell id="ar3VlsiydCS9kkMV2LeA-19" value="smartsite" style="ellipse;whiteSpace=wrap;html=1;fillColor=#d5e8d4;strokeColor=#82b366;" vertex="1" parent="WIyWlLk6GJQsqaUBKTNV-1">
          <mxGeometry x="390" y="3410" width="340" height="160" as="geometry">
            <mxRectangle x="450" y="1860" width="50" height="20" as="alternateBounds" />
          </mxGeometry>
        </mxCell>
        <mxCell id="ar3VlsiydCS9kkMV2LeA-20" value="" style="fillColor=#DEE8FF;strokeColor=none" vertex="1" parent="WIyWlLk6GJQsqaUBKTNV-1">
          <mxGeometry x="25" y="3590" width="1570" height="800" as="geometry" />
        </mxCell>
        <mxCell id="ar3VlsiydCS9kkMV2LeA-21" value="" style="fillColor=#CCD5EB" vertex="1" parent="WIyWlLk6GJQsqaUBKTNV-1">
          <mxGeometry x="120" y="4000" width="1460" height="390" as="geometry" />
        </mxCell>
        <mxCell id="ar3VlsiydCS9kkMV2LeA-22" value="" style="edgeStyle=elbowEdgeStyle;elbow=horizontal;endArrow=none;dashed=1;rounded=0;" edge="1" parent="WIyWlLk6GJQsqaUBKTNV-1">
          <mxGeometry x="1440" y="4027.8935185185187" width="100" height="100" as="geometry">
            <mxPoint x="1334.5" y="4200" as="sourcePoint" />
            <mxPoint x="1334.5" y="4360" as="targetPoint" />
          </mxGeometry>
        </mxCell>
        <mxCell id="ar3VlsiydCS9kkMV2LeA-23" value="" style="fillColor=#CC4125;strokeColor=#660000" vertex="1" parent="WIyWlLk6GJQsqaUBKTNV-1">
          <mxGeometry x="180" y="3740" width="10" height="130" as="geometry" />
        </mxCell>
        <mxCell id="ar3VlsiydCS9kkMV2LeA-24" value="validate()" style="edgeStyle=none;verticalLabelPosition=top;verticalAlign=bottom;labelPosition=left;align=right;rounded=0;" edge="1" parent="WIyWlLk6GJQsqaUBKTNV-1">
          <mxGeometry x="90" y="3639.5" width="100" height="100" as="geometry">
            <mxPoint x="90" y="3739.5" as="sourcePoint" />
            <mxPoint x="180" y="3739.5" as="targetPoint" />
          </mxGeometry>
        </mxCell>
        <mxCell id="ar3VlsiydCS9kkMV2LeA-25" value="" style="shadow=1;fillColor=#A2C4C9;strokeColor=none" vertex="1" parent="WIyWlLk6GJQsqaUBKTNV-1">
          <mxGeometry x="132.5" y="3650" width="105" height="50" as="geometry" />
        </mxCell>
        <mxCell id="ar3VlsiydCS9kkMV2LeA-26" value="" style="fillColor=#CC4125;strokeColor=#660000" vertex="1" parent="WIyWlLk6GJQsqaUBKTNV-1">
          <mxGeometry x="322.5" y="3770" width="10" height="80" as="geometry" />
        </mxCell>
        <mxCell id="ar3VlsiydCS9kkMV2LeA-27" value="&lt;&lt;javascript&gt;&gt;&#xa;:Comments" style="shadow=1;fillColor=#A2C4C9;strokeColor=none" vertex="1" parent="WIyWlLk6GJQsqaUBKTNV-1">
          <mxGeometry x="275" y="3650" width="105" height="50" as="geometry" />
        </mxCell>
        <mxCell id="ar3VlsiydCS9kkMV2LeA-28" value="" style="edgeStyle=none;endArrow=none;dashed=1;rounded=0;" edge="1" parent="WIyWlLk6GJQsqaUBKTNV-1" source="ar3VlsiydCS9kkMV2LeA-27" target="ar3VlsiydCS9kkMV2LeA-26">
          <mxGeometry x="252.3350694444445" y="3755" width="100" height="100" as="geometry">
            <mxPoint x="327.2588734567901" y="3700" as="sourcePoint" />
            <mxPoint x="327.5761959876544" y="3755" as="targetPoint" />
          </mxGeometry>
        </mxCell>
        <mxCell id="ar3VlsiydCS9kkMV2LeA-29" value="validate()" style="edgeStyle=none;verticalLabelPosition=top;verticalAlign=bottom;rounded=0;" edge="1" parent="WIyWlLk6GJQsqaUBKTNV-1">
          <mxGeometry x="200" y="3682" width="100" height="100" as="geometry">
            <mxPoint x="190" y="3769.5" as="sourcePoint" />
            <mxPoint x="320" y="3769.5" as="targetPoint" />
          </mxGeometry>
        </mxCell>
        <mxCell id="ar3VlsiydCS9kkMV2LeA-30" value="" style="edgeStyle=none;verticalLabelPosition=top;verticalAlign=bottom;endArrow=none;startArrow=classic;dashed=1;rounded=0;" edge="1" parent="WIyWlLk6GJQsqaUBKTNV-1">
          <mxGeometry x="200" y="3762.2588734567903" width="100" height="100" as="geometry">
            <mxPoint x="190" y="3849.7588734567903" as="sourcePoint" />
            <mxPoint x="320" y="3849.7588734567903" as="targetPoint" />
          </mxGeometry>
        </mxCell>
        <mxCell id="ar3VlsiydCS9kkMV2LeA-31" value="" style="edgeStyle=none;verticalLabelPosition=top;verticalAlign=bottom;labelPosition=left;align=right;endArrow=none;startArrow=classic;dashed=1;rounded=0;" edge="1" parent="WIyWlLk6GJQsqaUBKTNV-1">
          <mxGeometry x="90" y="3769.7588734567903" width="100" height="100" as="geometry">
            <mxPoint x="90" y="3869.7588734567903" as="sourcePoint" />
            <mxPoint x="180" y="3869.7588734567903" as="targetPoint" />
          </mxGeometry>
        </mxCell>
        <mxCell id="ar3VlsiydCS9kkMV2LeA-32" value="&lt;&lt;create&gt;&gt;" style="edgeStyle=none;verticalLabelPosition=top;verticalAlign=bottom;dashed=1;rounded=0;" edge="1" parent="WIyWlLk6GJQsqaUBKTNV-1">
          <mxGeometry x="365.45524691358025" y="3703.915509259259" width="100" height="100" as="geometry">
            <mxPoint x="332.5" y="3791.2056327160494" as="sourcePoint" />
            <mxPoint x="442.5" y="3791.2056327160494" as="targetPoint" />
          </mxGeometry>
        </mxCell>
        <mxCell id="ar3VlsiydCS9kkMV2LeA-33" value="&lt;&lt;javascript&gt;&gt;&#xa;:Proxy" style="shadow=1;fillColor=#A2C4C9;strokeColor=none" vertex="1" parent="WIyWlLk6GJQsqaUBKTNV-1">
          <mxGeometry x="442.2839506172839" y="3760" width="105" height="50" as="geometry" />
        </mxCell>
        <mxCell id="ar3VlsiydCS9kkMV2LeA-34" value="" style="edgeStyle=none;endArrow=none;rounded=0;" edge="1" parent="WIyWlLk6GJQsqaUBKTNV-1" source="ar3VlsiydCS9kkMV2LeA-33" target="ar3VlsiydCS9kkMV2LeA-35">
          <mxGeometry x="417.042824074074" y="3860" width="100" height="100" as="geometry">
            <mxPoint x="494.542824074074" y="3810" as="sourcePoint" />
            <mxPoint x="494.542824074074" y="3830" as="targetPoint" />
          </mxGeometry>
        </mxCell>
        <mxCell id="ar3VlsiydCS9kkMV2LeA-35" value="" style="fillColor=#CC4125;strokeColor=#660000" vertex="1" parent="WIyWlLk6GJQsqaUBKTNV-1">
          <mxGeometry x="489.78395061728384" y="3834.394290123457" width="10" height="130" as="geometry" />
        </mxCell>
        <mxCell id="ar3VlsiydCS9kkMV2LeA-36" value="&lt;&lt;ajax&gt;&gt;" style="edgeStyle=elbowEdgeStyle;elbow=vertical;verticalLabelPosition=top;verticalAlign=bottom;rounded=0;" edge="1" parent="WIyWlLk6GJQsqaUBKTNV-1" source="ar3VlsiydCS9kkMV2LeA-26" target="ar3VlsiydCS9kkMV2LeA-35">
          <mxGeometry x="330" y="3880" width="100" height="100" as="geometry">
            <mxPoint x="330" y="3980" as="sourcePoint" />
            <mxPoint x="430" y="3880" as="targetPoint" />
          </mxGeometry>
        </mxCell>
        <mxCell id="ar3VlsiydCS9kkMV2LeA-37" value="" style="fillColor=#CC4125;strokeColor=#660000" vertex="1" parent="WIyWlLk6GJQsqaUBKTNV-1">
          <mxGeometry x="650" y="3859.394290123457" width="10" height="80" as="geometry" />
        </mxCell>
        <mxCell id="ar3VlsiydCS9kkMV2LeA-38" value="&lt;&lt;servlet&gt;&gt;&#xa;:CVSServlet" style="shadow=1;fillColor=#A2C4C9;strokeColor=none" vertex="1" parent="WIyWlLk6GJQsqaUBKTNV-1">
          <mxGeometry x="602.5" y="3650" width="105" height="50" as="geometry" />
        </mxCell>
        <mxCell id="ar3VlsiydCS9kkMV2LeA-39" value="" style="edgeStyle=none;endArrow=none;dashed=1;rounded=0;" edge="1" parent="WIyWlLk6GJQsqaUBKTNV-1" source="ar3VlsiydCS9kkMV2LeA-38" target="ar3VlsiydCS9kkMV2LeA-37">
          <mxGeometry x="594.4878472222224" y="3765" width="100" height="100" as="geometry">
            <mxPoint x="654.6527777777778" y="3700" as="sourcePoint" />
            <mxPoint x="654.6527777777778" y="3850" as="targetPoint" />
          </mxGeometry>
        </mxCell>
        <mxCell id="ar3VlsiydCS9kkMV2LeA-40" value="&lt;&lt;service&gt;&gt;&#xa;:CVSService" style="shadow=1;fillColor=#A2C4C9;strokeColor=none" vertex="1" parent="WIyWlLk6GJQsqaUBKTNV-1">
          <mxGeometry x="730" y="3650" width="105" height="50" as="geometry" />
        </mxCell>
        <mxCell id="ar3VlsiydCS9kkMV2LeA-41" value="" style="edgeStyle=none;endArrow=none;dashed=1;rounded=0;" edge="1" parent="WIyWlLk6GJQsqaUBKTNV-1" source="ar3VlsiydCS9kkMV2LeA-40" target="ar3VlsiydCS9kkMV2LeA-42">
          <mxGeometry x="707.3350694444446" y="3755" width="100" height="100" as="geometry">
            <mxPoint x="782.2588734567901" y="3700" as="sourcePoint" />
            <mxPoint x="782.5761959876544" y="3755" as="targetPoint" />
          </mxGeometry>
        </mxCell>
        <mxCell id="ar3VlsiydCS9kkMV2LeA-42" value="" style="fillColor=#CC4125;strokeColor=#660000" vertex="1" parent="WIyWlLk6GJQsqaUBKTNV-1">
          <mxGeometry x="777.4999999999999" y="3879.394290123457" width="10" height="40" as="geometry" />
        </mxCell>
        <mxCell id="ar3VlsiydCS9kkMV2LeA-43" value="&lt;&lt;ajax&gt;&gt;" style="edgeStyle=elbowEdgeStyle;elbow=vertical;verticalLabelPosition=top;verticalAlign=bottom;rounded=0;" edge="1" parent="WIyWlLk6GJQsqaUBKTNV-1" source="ar3VlsiydCS9kkMV2LeA-35" target="ar3VlsiydCS9kkMV2LeA-37">
          <mxGeometry x="520" y="3860" width="100" height="100" as="geometry">
            <mxPoint x="520" y="3960" as="sourcePoint" />
            <mxPoint x="620" y="3860" as="targetPoint" />
            <Array as="points">
              <mxPoint x="570" y="3860" />
            </Array>
          </mxGeometry>
        </mxCell>
        <mxCell id="ar3VlsiydCS9kkMV2LeA-44" value="errors" style="edgeStyle=elbowEdgeStyle;elbow=vertical;dashed=1;verticalLabelPosition=bottom;verticalAlign=top;rounded=0;" edge="1" parent="WIyWlLk6GJQsqaUBKTNV-1" source="ar3VlsiydCS9kkMV2LeA-37" target="ar3VlsiydCS9kkMV2LeA-35">
          <mxGeometry x="530" y="3870" width="100" height="100" as="geometry">
            <mxPoint x="509.78395061728384" y="3870" as="sourcePoint" />
            <mxPoint x="660" y="3870" as="targetPoint" />
            <Array as="points">
              <mxPoint x="573" y="3938" />
            </Array>
          </mxGeometry>
        </mxCell>
        <mxCell id="ar3VlsiydCS9kkMV2LeA-45" value="&lt;&lt;javascript&gt;&gt;&#xa;:GimqRequest&#xa;Batch" style="shadow=1;fillColor=#A2C4C9;strokeColor=none" vertex="1" parent="WIyWlLk6GJQsqaUBKTNV-1">
          <mxGeometry x="932.5" y="3650" width="105" height="50" as="geometry" />
        </mxCell>
        <mxCell id="ar3VlsiydCS9kkMV2LeA-46" value="" style="edgeStyle=elbowEdgeStyle;elbow=horizontal;endArrow=none;dashed=1;rounded=0;" edge="1" parent="WIyWlLk6GJQsqaUBKTNV-1" source="ar3VlsiydCS9kkMV2LeA-25" target="ar3VlsiydCS9kkMV2LeA-23">
          <mxGeometry x="210.00000000000003" y="3900" width="100" height="100" as="geometry">
            <mxPoint x="210.00000000000003" y="4000" as="sourcePoint" />
            <mxPoint x="310" y="3900" as="targetPoint" />
          </mxGeometry>
        </mxCell>
        <mxCell id="ar3VlsiydCS9kkMV2LeA-47" value="validate()" style="edgeStyle=elbowEdgeStyle;elbow=vertical;verticalLabelPosition=top;verticalAlign=bottom;rounded=0;" edge="1" parent="WIyWlLk6GJQsqaUBKTNV-1">
          <mxGeometry x="530" y="3851.7361111111113" width="100" height="100" as="geometry">
            <mxPoint x="660" y="3881.130401234568" as="sourcePoint" />
            <mxPoint x="777.4999999999999" y="3881.130401234568" as="targetPoint" />
            <Array as="points" />
          </mxGeometry>
        </mxCell>
        <mxCell id="ar3VlsiydCS9kkMV2LeA-48" value="errors" style="edgeStyle=elbowEdgeStyle;elbow=vertical;dashed=1;verticalLabelPosition=bottom;verticalAlign=top;rounded=0;" edge="1" parent="WIyWlLk6GJQsqaUBKTNV-1">
          <mxGeometry x="540" y="3899.652777777778" width="100" height="100" as="geometry">
            <mxPoint x="777.4999999999999" y="3919.0470679012346" as="sourcePoint" />
            <mxPoint x="660" y="3919.0470679012346" as="targetPoint" />
            <Array as="points" />
          </mxGeometry>
        </mxCell>
        <mxCell id="ar3VlsiydCS9kkMV2LeA-49" value="" style="edgeStyle=elbowEdgeStyle;elbow=horizontal;endArrow=none;dashed=1;rounded=0;" edge="1" parent="WIyWlLk6GJQsqaUBKTNV-1">
          <mxGeometry x="912.2588734567901" y="3830" width="100" height="100" as="geometry">
            <mxPoint x="782.2588734567901" y="3919.394290123457" as="sourcePoint" />
            <mxPoint x="782.2588734567901" y="3960" as="targetPoint" />
            <Array as="points">
              <mxPoint x="782.2588734567901" y="3940" />
            </Array>
          </mxGeometry>
        </mxCell>
        <mxCell id="ar3VlsiydCS9kkMV2LeA-50" value="" style="ellipse;fillColor=none" vertex="1" parent="WIyWlLk6GJQsqaUBKTNV-1">
          <mxGeometry x="782.5000000000001" y="3894.394290123457" width="9.999999999999886" height="10" as="geometry" />
        </mxCell>
        <mxCell id="ar3VlsiydCS9kkMV2LeA-51" value=" - user&#xa; validation&#xa;&#xa; - password check" style="shape=note;align=left" vertex="1" parent="WIyWlLk6GJQsqaUBKTNV-1">
          <mxGeometry x="809.9729938271605" y="3770.1736111111113" width="120.02700617283949" height="109.82638888888889" as="geometry" />
        </mxCell>
        <mxCell id="ar3VlsiydCS9kkMV2LeA-52" value="" style="edgeStyle=none;endArrow=none;dashed=1;rounded=0;" edge="1" parent="WIyWlLk6GJQsqaUBKTNV-1" source="ar3VlsiydCS9kkMV2LeA-51" target="ar3VlsiydCS9kkMV2LeA-50">
          <mxGeometry x="1010" y="3770" width="100" height="100" as="geometry">
            <mxPoint x="1010" y="3870" as="sourcePoint" />
            <mxPoint x="1110" y="3770" as="targetPoint" />
          </mxGeometry>
        </mxCell>
        <mxCell id="ar3VlsiydCS9kkMV2LeA-53" value="" style="fillColor=#CC4125;strokeColor=#660000" vertex="1" parent="WIyWlLk6GJQsqaUBKTNV-1">
          <mxGeometry x="180" y="3950" width="10" height="220" as="geometry" />
        </mxCell>
        <mxCell id="ar3VlsiydCS9kkMV2LeA-54" value="             &lt;&lt;callback&gt;&gt;                                " style="edgeStyle=elbowEdgeStyle;elbow=vertical;dashed=0;verticalLabelPosition=top;verticalAlign=bottom;align=right;rounded=0;" edge="1" parent="WIyWlLk6GJQsqaUBKTNV-1" source="ar3VlsiydCS9kkMV2LeA-35" target="ar3VlsiydCS9kkMV2LeA-53">
          <mxGeometry x="170" y="3919.75887345679" width="100" height="100" as="geometry">
            <mxPoint x="480" y="3900" as="sourcePoint" />
            <mxPoint x="200" y="3960" as="targetPoint" />
            <Array as="points" />
          </mxGeometry>
        </mxCell>
        <mxCell id="ar3VlsiydCS9kkMV2LeA-55" value="" style="edgeStyle=none;dashed=1;endArrow=none;rounded=0;" edge="1" parent="WIyWlLk6GJQsqaUBKTNV-1" source="ar3VlsiydCS9kkMV2LeA-23" target="ar3VlsiydCS9kkMV2LeA-53">
          <mxGeometry x="30" y="3890" width="100" height="100" as="geometry">
            <mxPoint x="30" y="3990" as="sourcePoint" />
            <mxPoint x="130" y="3890" as="targetPoint" />
          </mxGeometry>
        </mxCell>
        <mxCell id="ar3VlsiydCS9kkMV2LeA-56" value="" style="edgeStyle=elbowEdgeStyle;elbow=vertical;endArrow=none;rounded=0;" edge="1" parent="WIyWlLk6GJQsqaUBKTNV-1" source="ar3VlsiydCS9kkMV2LeA-53">
          <mxGeometry x="40" y="3900" width="100" height="100" as="geometry">
            <mxPoint x="40" y="4000" as="sourcePoint" />
            <mxPoint x="130" y="3950" as="targetPoint" />
          </mxGeometry>
        </mxCell>
        <mxCell id="ar3VlsiydCS9kkMV2LeA-57" value="{100..600ms}" style="edgeStyle=elbowEdgeStyle;elbow=horizontal;startArrow=open;endArrow=open;labelPosition=left;align=right;rounded=0;" edge="1" parent="WIyWlLk6GJQsqaUBKTNV-1">
          <mxGeometry x="41.20563271604938" y="3880" width="100" height="100" as="geometry">
            <mxPoint x="161.20563271604937" y="3870" as="sourcePoint" />
            <mxPoint x="161.20563271604937" y="3950" as="targetPoint" />
          </mxGeometry>
        </mxCell>
        <mxCell id="ar3VlsiydCS9kkMV2LeA-58" value="" style="fillColor=#CC4125;strokeColor=#660000" vertex="1" parent="WIyWlLk6GJQsqaUBKTNV-1">
          <mxGeometry x="322.5" y="4054.1666666666665" width="10" height="95.83333333333331" as="geometry" />
        </mxCell>
        <mxCell id="ar3VlsiydCS9kkMV2LeA-59" value="" style="fillColor=#CC4125;strokeColor=#660000" vertex="1" parent="WIyWlLk6GJQsqaUBKTNV-1">
          <mxGeometry x="980" y="4058.3333333333335" width="10" height="81.66666666666669" as="geometry" />
        </mxCell>
        <mxCell id="ar3VlsiydCS9kkMV2LeA-60" value="" style="edgeStyle=none;endArrow=none;dashed=1;rounded=0;" edge="1" parent="WIyWlLk6GJQsqaUBKTNV-1" source="ar3VlsiydCS9kkMV2LeA-45" target="ar3VlsiydCS9kkMV2LeA-59">
          <mxGeometry x="936.5711805555559" y="3795" width="100" height="100" as="geometry">
            <mxPoint x="1011.7361111111113" y="3740" as="sourcePoint" />
            <mxPoint x="1011.7361111111113" y="3919.394290123457" as="targetPoint" />
          </mxGeometry>
        </mxCell>
        <mxCell id="ar3VlsiydCS9kkMV2LeA-61" value="post_comments()" style="edgeStyle=elbowEdgeStyle;elbow=vertical;verticalLabelPosition=top;verticalAlign=bottom;rounded=0;" edge="1" parent="WIyWlLk6GJQsqaUBKTNV-1">
          <mxGeometry x="192.5" y="4059.5833333333335" width="100" height="100" as="geometry">
            <mxPoint x="190" y="4059.5833333333335" as="sourcePoint" />
            <mxPoint x="322.5" y="4059.5833333333335" as="targetPoint" />
            <Array as="points" />
          </mxGeometry>
        </mxCell>
        <mxCell id="ar3VlsiydCS9kkMV2LeA-62" value="" style="edgeStyle=none;endArrow=none;dashed=1;rounded=0;" edge="1" parent="WIyWlLk6GJQsqaUBKTNV-1" source="ar3VlsiydCS9kkMV2LeA-26" target="ar3VlsiydCS9kkMV2LeA-58">
          <mxGeometry x="356.5711805555559" y="3929.6971450617284" width="100" height="100" as="geometry">
            <mxPoint x="431.7361111111112" y="3874.6971450617284" as="sourcePoint" />
            <mxPoint x="431.7361111111112" y="4054.091435185185" as="targetPoint" />
          </mxGeometry>
        </mxCell>
        <mxCell id="ar3VlsiydCS9kkMV2LeA-63" value="BeginRequest()" style="edgeStyle=elbowEdgeStyle;elbow=vertical;verticalLabelPosition=top;verticalAlign=bottom;rounded=0;" edge="1" parent="WIyWlLk6GJQsqaUBKTNV-1">
          <mxGeometry x="510" y="4026.8055555555557" width="100" height="100" as="geometry">
            <mxPoint x="332.5" y="4067.5694444444443" as="sourcePoint" />
            <mxPoint x="980" y="4067.5694444444443" as="targetPoint" />
            <Array as="points" />
          </mxGeometry>
        </mxCell>
        <mxCell id="ar3VlsiydCS9kkMV2LeA-64" value="" style="edgeStyle=elbowEdgeStyle;elbow=vertical;dashed=1;verticalLabelPosition=bottom;verticalAlign=top;rounded=0;" edge="1" parent="WIyWlLk6GJQsqaUBKTNV-1">
          <mxGeometry x="510" y="4139.077932098766" width="100" height="100" as="geometry">
            <mxPoint x="980" y="4131.736111111111" as="sourcePoint" />
            <mxPoint x="332.49999999999994" y="4131.736111111111" as="targetPoint" />
            <Array as="points" />
          </mxGeometry>
        </mxCell>
        <mxCell id="ar3VlsiydCS9kkMV2LeA-65" value="&lt;&lt;javascript&gt;&gt;&#xa;:Proxy" style="shadow=1;fillColor=#A2C4C9;strokeColor=none" vertex="1" parent="WIyWlLk6GJQsqaUBKTNV-1">
          <mxGeometry x="1070" y="4052.0833333333335" width="105" height="50" as="geometry" />
        </mxCell>
        <mxCell id="ar3VlsiydCS9kkMV2LeA-66" value="" style="edgeStyle=none;endArrow=none;dashed=1;rounded=0;" edge="1" parent="WIyWlLk6GJQsqaUBKTNV-1" source="ar3VlsiydCS9kkMV2LeA-65" target="ar3VlsiydCS9kkMV2LeA-67">
          <mxGeometry x="1184.0711805555559" y="3970.0868055555557" width="100" height="100" as="geometry">
            <mxPoint x="1259.2361111111113" y="3915.0868055555557" as="sourcePoint" />
            <mxPoint x="1330" y="4035.0868055555557" as="targetPoint" />
          </mxGeometry>
        </mxCell>
        <mxCell id="ar3VlsiydCS9kkMV2LeA-67" value="" style="fillColor=#CC4125;strokeColor=#660000" vertex="1" parent="WIyWlLk6GJQsqaUBKTNV-1">
          <mxGeometry x="1117.5" y="4120" width="10" height="90" as="geometry" />
        </mxCell>
        <mxCell id="ar3VlsiydCS9kkMV2LeA-68" value="" style="fillColor=#CC4125;strokeColor=#660000" vertex="1" parent="WIyWlLk6GJQsqaUBKTNV-1">
          <mxGeometry x="1330" y="4130" width="10" height="70" as="geometry" />
        </mxCell>
        <mxCell id="ar3VlsiydCS9kkMV2LeA-69" value="&lt;&lt;create&gt;&gt;" style="edgeStyle=elbowEdgeStyle;elbow=vertical;verticalLabelPosition=top;verticalAlign=bottom;dashed=1;rounded=0;" edge="1" parent="WIyWlLk6GJQsqaUBKTNV-1" source="ar3VlsiydCS9kkMV2LeA-59" target="ar3VlsiydCS9kkMV2LeA-65">
          <mxGeometry x="881.25" y="3912.5" width="100" height="100" as="geometry">
            <mxPoint x="1011.25" y="3941.894290123457" as="sourcePoint" />
            <mxPoint x="1128.75" y="3941.894290123457" as="targetPoint" />
            <Array as="points" />
          </mxGeometry>
        </mxCell>
        <mxCell id="ar3VlsiydCS9kkMV2LeA-70" value="&lt;&lt;ajax&gt;&gt;" style="edgeStyle=elbowEdgeStyle;elbow=vertical;verticalLabelPosition=top;verticalAlign=bottom;rounded=0;" edge="1" parent="WIyWlLk6GJQsqaUBKTNV-1" source="ar3VlsiydCS9kkMV2LeA-59" target="ar3VlsiydCS9kkMV2LeA-67">
          <mxGeometry x="1045" y="3949.5" width="100" height="100" as="geometry">
            <mxPoint x="1024.7839506172838" y="3949.5" as="sourcePoint" />
            <mxPoint x="1175" y="3949.5" as="targetPoint" />
            <Array as="points" />
          </mxGeometry>
        </mxCell>
        <mxCell id="ar3VlsiydCS9kkMV2LeA-71" value="postComments()" style="edgeStyle=elbowEdgeStyle;elbow=vertical;verticalLabelPosition=top;verticalAlign=bottom;rounded=0;" edge="1" parent="WIyWlLk6GJQsqaUBKTNV-1">
          <mxGeometry x="1205" y="3899.5" width="100" height="100" as="geometry">
            <mxPoint x="1127.5" y="4132.5" as="sourcePoint" />
            <mxPoint x="1330" y="4132.5" as="targetPoint" />
            <Array as="points" />
          </mxGeometry>
        </mxCell>
        <mxCell id="ar3VlsiydCS9kkMV2LeA-72" value="&lt;&lt;json&gt;&gt;" style="edgeStyle=elbowEdgeStyle;elbow=vertical;dashed=1;verticalLabelPosition=bottom;verticalAlign=top;rounded=0;" edge="1" parent="WIyWlLk6GJQsqaUBKTNV-1">
          <mxGeometry x="1055" y="3986" width="100" height="100" as="geometry">
            <mxPoint x="1330" y="4196.5" as="sourcePoint" />
            <mxPoint x="1127.5" y="4196.5" as="targetPoint" />
            <Array as="points" />
          </mxGeometry>
        </mxCell>
        <mxCell id="ar3VlsiydCS9kkMV2LeA-73" value="&lt;&lt;service&gt;&gt;&#xa;:GimqService" style="shadow=1;fillColor=#A2C4C9;strokeColor=none" vertex="1" parent="WIyWlLk6GJQsqaUBKTNV-1">
          <mxGeometry x="1282.5" y="3650" width="105" height="50" as="geometry" />
        </mxCell>
        <mxCell id="ar3VlsiydCS9kkMV2LeA-74" value="" style="edgeStyle=none;endArrow=none;dashed=1;rounded=0;" edge="1" parent="WIyWlLk6GJQsqaUBKTNV-1" source="ar3VlsiydCS9kkMV2LeA-73" target="ar3VlsiydCS9kkMV2LeA-68">
          <mxGeometry x="1154.0711805555559" y="3800" width="100" height="100" as="geometry">
            <mxPoint x="1202.5" y="3705" as="sourcePoint" />
            <mxPoint x="1202.5" y="4035" as="targetPoint" />
          </mxGeometry>
        </mxCell>
        <mxCell id="ar3VlsiydCS9kkMV2LeA-75" value="" style="fillColor=#CC4125;strokeColor=#660000" vertex="1" parent="WIyWlLk6GJQsqaUBKTNV-1">
          <mxGeometry x="180" y="4190" width="10" height="130" as="geometry" />
        </mxCell>
        <mxCell id="ar3VlsiydCS9kkMV2LeA-76" value="" style="edgeStyle=elbowEdgeStyle;elbow=vertical;dashed=1;verticalLabelPosition=bottom;verticalAlign=top;rounded=0;" edge="1" parent="WIyWlLk6GJQsqaUBKTNV-1">
          <mxGeometry x="487.5" y="4254.3418209876545" width="100" height="100" as="geometry">
            <mxPoint x="322.5" y="4139.5" as="sourcePoint" />
            <mxPoint x="190" y="4139.5" as="targetPoint" />
            <Array as="points" />
          </mxGeometry>
        </mxCell>
        <mxCell id="ar3VlsiydCS9kkMV2LeA-77" value="&lt;&lt;callback&gt;&gt;" style="edgeStyle=elbowEdgeStyle;elbow=vertical;dashed=1;verticalLabelPosition=bottom;verticalAlign=bottom;rounded=0;" edge="1" parent="WIyWlLk6GJQsqaUBKTNV-1" source="ar3VlsiydCS9kkMV2LeA-67" target="ar3VlsiydCS9kkMV2LeA-75">
          <mxGeometry x="520" y="4149.077932098766" width="100" height="100" as="geometry">
            <mxPoint x="990" y="4141.736111111111" as="sourcePoint" />
            <mxPoint x="342.49999999999994" y="4141.736111111111" as="targetPoint" />
            <Array as="points" />
          </mxGeometry>
        </mxCell>
        <mxCell id="ar3VlsiydCS9kkMV2LeA-78" value="add device" style="rounded=1;fontStyle=1;fillColor=#FFD966;strokeColor=none" vertex="1" parent="WIyWlLk6GJQsqaUBKTNV-1">
          <mxGeometry x="30" y="3610" width="150" height="30" as="geometry" />
        </mxCell>
        <mxCell id="ar3VlsiydCS9kkMV2LeA-79" value="opt" style="rounded=1;fontStyle=1;fillColor=#FFD966;strokeColor=none" vertex="1" parent="WIyWlLk6GJQsqaUBKTNV-1">
          <mxGeometry x="132.5" y="4010" width="87.5" height="30" as="geometry" />
        </mxCell>
        <mxCell id="ar3VlsiydCS9kkMV2LeA-80" value="Handle errors from Gimq" style="fillColor=#BFC8DB" vertex="1" parent="WIyWlLk6GJQsqaUBKTNV-1">
          <mxGeometry x="170" y="4215" width="310" height="60.55555555555554" as="geometry" />
        </mxCell>
        <mxCell id="ar3VlsiydCS9kkMV2LeA-81" value="ref" style="rounded=1;fontStyle=1;fillColor=#FFD966;strokeColor=none" vertex="1" parent="WIyWlLk6GJQsqaUBKTNV-1">
          <mxGeometry x="176.25" y="4222.893518518518" width="53.75" height="25" as="geometry" />
        </mxCell>
        <mxCell id="ar3VlsiydCS9kkMV2LeA-82" value="" style="align=left;fillColor=#BFC8DB" vertex="1" parent="WIyWlLk6GJQsqaUBKTNV-1">
          <mxGeometry x="169.99999999999997" y="4289.722222222223" width="1201.1944444444443" height="60.55555555555554" as="geometry" />
        </mxCell>
        <mxCell id="ar3VlsiydCS9kkMV2LeA-83" value="ref" style="rounded=1;fontStyle=1;fillColor=#FFD966;strokeColor=none" vertex="1" parent="WIyWlLk6GJQsqaUBKTNV-1">
          <mxGeometry x="176.24999999999997" y="4297.615740740741" width="53.75" height="25" as="geometry" />
        </mxCell>
        <mxCell id="ar3VlsiydCS9kkMV2LeA-84" value="Request all changes" style="text;align=left" vertex="1" parent="WIyWlLk6GJQsqaUBKTNV-1">
          <mxGeometry x="248.05555555555554" y="4310.115740740741" width="351.80555555555554" height="26" as="geometry" />
        </mxCell>
        <mxCell id="ar3VlsiydCS9kkMV2LeA-85" value="" style="edgeStyle=elbowEdgeStyle;elbow=vertical;endArrow=none;rounded=0;" edge="1" parent="WIyWlLk6GJQsqaUBKTNV-1">
          <mxGeometry x="39.999999999999986" y="4009.7106481481483" width="100" height="100" as="geometry">
            <mxPoint x="180" y="4059.7106481481483" as="sourcePoint" />
            <mxPoint x="129.99999999999997" y="4059.7106481481483" as="targetPoint" />
          </mxGeometry>
        </mxCell>
        <mxCell id="ar3VlsiydCS9kkMV2LeA-86" value="" style="edgeStyle=elbowEdgeStyle;elbow=vertical;endArrow=none;rounded=0;" edge="1" parent="WIyWlLk6GJQsqaUBKTNV-1">
          <mxGeometry x="40" y="4089.710648148148" width="100" height="100" as="geometry">
            <mxPoint x="180.00000000000003" y="4139.710648148148" as="sourcePoint" />
            <mxPoint x="130" y="4139.710648148148" as="targetPoint" />
          </mxGeometry>
        </mxCell>
        <mxCell id="ar3VlsiydCS9kkMV2LeA-87" value="" style="edgeStyle=elbowEdgeStyle;elbow=vertical;endArrow=none;rounded=0;" edge="1" parent="WIyWlLk6GJQsqaUBKTNV-1">
          <mxGeometry x="39.999999999999986" y="4149.710648148148" width="100" height="100" as="geometry">
            <mxPoint x="180" y="4199.710648148148" as="sourcePoint" />
            <mxPoint x="129.99999999999997" y="4199.710648148148" as="targetPoint" />
          </mxGeometry>
        </mxCell>
        <mxCell id="ar3VlsiydCS9kkMV2LeA-88" value="" style="edgeStyle=elbowEdgeStyle;elbow=vertical;endArrow=none;rounded=0;" edge="1" parent="WIyWlLk6GJQsqaUBKTNV-1">
          <mxGeometry x="30" y="4239.43287037037" width="100" height="100" as="geometry">
            <mxPoint x="170.00000000000003" y="4289.43287037037" as="sourcePoint" />
            <mxPoint x="120" y="4289.43287037037" as="targetPoint" />
          </mxGeometry>
        </mxCell>
        <mxCell id="ar3VlsiydCS9kkMV2LeA-89" value="" style="edgeStyle=elbowEdgeStyle;elbow=vertical;endArrow=none;rounded=0;" edge="1" parent="WIyWlLk6GJQsqaUBKTNV-1">
          <mxGeometry x="29.99999999999993" y="4299.988425925926" width="100" height="100" as="geometry">
            <mxPoint x="169.99999999999994" y="4349.988425925926" as="sourcePoint" />
            <mxPoint x="119.99999999999994" y="4349.988425925926" as="targetPoint" />
          </mxGeometry>
        </mxCell>
        <mxCell id="ar3VlsiydCS9kkMV2LeA-90" value="{5..50ms}" style="edgeStyle=elbowEdgeStyle;elbow=horizontal;startArrow=open;endArrow=open;labelPosition=left;align=right;rounded=0;" edge="1" parent="WIyWlLk6GJQsqaUBKTNV-1">
          <mxGeometry x="21.446759259259267" y="4069.1666666666665" width="100" height="100" as="geometry">
            <mxPoint x="141.44675925925927" y="4059.1666666666665" as="sourcePoint" />
            <mxPoint x="141.44675925925927" y="4139.166666666667" as="targetPoint" />
          </mxGeometry>
        </mxCell>
        <mxCell id="ar3VlsiydCS9kkMV2LeA-91" value="{1..500ms}" style="edgeStyle=elbowEdgeStyle;elbow=horizontal;startArrow=open;endArrow=open;labelPosition=left;align=right;rounded=0;" edge="1" parent="WIyWlLk6GJQsqaUBKTNV-1">
          <mxGeometry x="22.893518518518533" y="4150" width="100" height="100" as="geometry">
            <mxPoint x="141.44675925925927" y="4140" as="sourcePoint" />
            <mxPoint x="141.44675925925927" y="4200" as="targetPoint" />
          </mxGeometry>
        </mxCell>
        <mxCell id="ar3VlsiydCS9kkMV2LeA-92" value="{10..50ms}" style="edgeStyle=elbowEdgeStyle;elbow=horizontal;startArrow=open;endArrow=open;labelPosition=left;align=right;rounded=0;" edge="1" parent="WIyWlLk6GJQsqaUBKTNV-1">
          <mxGeometry x="-20" y="3590" width="100" height="100" as="geometry">
            <mxPoint x="133.94675925925927" y="4290.277777777777" as="sourcePoint" />
            <mxPoint x="133.94675925925927" y="4350.277777777777" as="targetPoint" />
            <mxPoint x="-4.236111111111107" y="-0.2777777777777883" as="offset" />
          </mxGeometry>
        </mxCell>
        <mxCell id="ar3VlsiydCS9kkMV2LeA-100" style="edgeStyle=orthogonalEdgeStyle;rounded=0;orthogonalLoop=1;jettySize=auto;html=1;entryX=0.5;entryY=0;entryDx=0;entryDy=0;" edge="1" parent="WIyWlLk6GJQsqaUBKTNV-1" source="ar3VlsiydCS9kkMV2LeA-93" target="ar3VlsiydCS9kkMV2LeA-94">
          <mxGeometry relative="1" as="geometry" />
        </mxCell>
        <mxCell id="ar3VlsiydCS9kkMV2LeA-93" value="add device" style="rounded=1;whiteSpace=wrap;html=1;" vertex="1" parent="WIyWlLk6GJQsqaUBKTNV-1">
          <mxGeometry x="1080" y="2940" width="120" height="60" as="geometry" />
        </mxCell>
        <mxCell id="ar3VlsiydCS9kkMV2LeA-96" value="" style="edgeStyle=orthogonalEdgeStyle;rounded=0;orthogonalLoop=1;jettySize=auto;html=1;" edge="1" parent="WIyWlLk6GJQsqaUBKTNV-1" source="ar3VlsiydCS9kkMV2LeA-94" target="ar3VlsiydCS9kkMV2LeA-95">
          <mxGeometry relative="1" as="geometry" />
        </mxCell>
        <mxCell id="ar3VlsiydCS9kkMV2LeA-99" value="y" style="edgeLabel;html=1;align=center;verticalAlign=middle;resizable=0;points=[];" vertex="1" connectable="0" parent="ar3VlsiydCS9kkMV2LeA-96">
          <mxGeometry x="-0.2813" y="-2" relative="1" as="geometry">
            <mxPoint as="offset" />
          </mxGeometry>
        </mxCell>
        <mxCell id="ar3VlsiydCS9kkMV2LeA-102" style="edgeStyle=orthogonalEdgeStyle;rounded=0;orthogonalLoop=1;jettySize=auto;html=1;entryX=0.5;entryY=0;entryDx=0;entryDy=0;" edge="1" parent="WIyWlLk6GJQsqaUBKTNV-1" source="ar3VlsiydCS9kkMV2LeA-94" target="ar3VlsiydCS9kkMV2LeA-101">
          <mxGeometry relative="1" as="geometry" />
        </mxCell>
        <mxCell id="ar3VlsiydCS9kkMV2LeA-103" value="n" style="edgeLabel;html=1;align=center;verticalAlign=middle;resizable=0;points=[];" vertex="1" connectable="0" parent="ar3VlsiydCS9kkMV2LeA-102">
          <mxGeometry x="-0.2264" relative="1" as="geometry">
            <mxPoint y="-1" as="offset" />
          </mxGeometry>
        </mxCell>
        <mxCell id="ar3VlsiydCS9kkMV2LeA-94" value="online" style="rhombus;whiteSpace=wrap;html=1;" vertex="1" parent="WIyWlLk6GJQsqaUBKTNV-1">
          <mxGeometry x="1100" y="3090" width="80" height="80" as="geometry" />
        </mxCell>
        <mxCell id="ar3VlsiydCS9kkMV2LeA-95" value="end" style="rhombus;whiteSpace=wrap;html=1;shadow=1;direction=west;" vertex="1" parent="WIyWlLk6GJQsqaUBKTNV-1">
          <mxGeometry x="1282.5" y="3090" width="80" height="80" as="geometry" />
        </mxCell>
        <mxCell id="ar3VlsiydCS9kkMV2LeA-101" value="fail" style="rounded=1;whiteSpace=wrap;html=1;" vertex="1" parent="WIyWlLk6GJQsqaUBKTNV-1">
          <mxGeometry x="1080" y="3220" width="120" height="60" as="geometry" />
        </mxCell>
        <mxCell id="ar3VlsiydCS9kkMV2LeA-104" value="box" style="rounded=1;whiteSpace=wrap;html=1;shadow=1;" vertex="1" parent="WIyWlLk6GJQsqaUBKTNV-1">
          <mxGeometry x="782.5" y="3300" width="127" height="60" as="geometry" />
        </mxCell>
      </root>
    </mxGraphModel>
  </diagram>
</mxfile>
